<svg width="355" height="120" viewBox="0 0 355 120" fill="none" xmlns="http://www.w3.org/2000/svg">
<path d="M350.733 64.2825H350.01C349.865 55.267 349.72 46.2922 349.576 37.3579L350.294 37.3235C350.439 46.2701 350.586 55.2564 350.733 64.2825Z" fill="url(#paint0_linear_464_1261)"/>
<path d="M339.612 68.6181H338.915C338.831 62.3299 338.747 56.0616 338.665 49.813L339.359 49.7932C339.443 56.0488 339.527 62.3238 339.612 68.6181Z" fill="url(#paint1_linear_464_1261)"/>
<path d="M328.887 75.4604L328.213 75.4512C328.136 68.1827 328.06 60.9398 327.983 53.7225L328.653 53.708C328.73 60.9332 328.808 68.184 328.887 75.4604Z" fill="url(#paint2_linear_464_1261)"/>
<path d="M318.61 95.8246L317.955 95.7942C317.82 78.875 317.688 62.0983 317.558 45.4642L318.204 45.4403C318.335 62.0939 318.471 78.8887 318.61 95.8246Z" fill="url(#paint3_linear_464_1261)"/>
<path d="M308.366 77.799L307.738 77.7884C307.694 69.8574 307.65 61.9576 307.605 54.0892L308.23 54.0746C308.277 61.9519 308.322 69.86 308.366 77.799Z" fill="url(#paint4_linear_464_1261)"/>
<path d="M298.643 88.7745L298.032 88.752C298 78.2305 297.968 67.7636 297.936 57.3515L298.542 57.3409C298.576 67.7645 298.609 78.2424 298.643 88.7745Z" fill="url(#paint5_linear_464_1261)"/>
<path d="M289.183 95.6737L288.591 95.6446C288.583 83.4749 288.575 71.3789 288.566 59.3565L289.152 59.3473C289.163 71.3829 289.173 83.4917 289.183 95.6737Z" fill="url(#paint6_linear_464_1261)"/>
<path d="M280.021 90.3018L279.448 90.2779C279.467 77.9768 279.487 65.7506 279.507 53.5995L280.074 53.5849C280.053 65.7493 280.036 77.9883 280.021 90.3018Z" fill="url(#paint7_linear_464_1261)"/>
<path d="M271.193 76.4107L270.641 76.4015C270.694 62.4821 270.747 48.659 270.799 34.932L271.345 34.899C271.295 48.6409 271.244 62.4782 271.193 76.4107Z" fill="url(#paint8_linear_464_1261)"/>
<path d="M262.576 85.1787L262.047 85.1602C262.123 72.1576 262.2 59.2379 262.277 46.4012L262.806 46.3813C262.724 59.2295 262.647 72.162 262.576 85.1787Z" fill="url(#paint9_linear_464_1261)"/>
<path d="M254.179 94.9246L253.657 94.8981C253.75 83.2834 253.842 71.7353 253.935 60.2538H254.451C254.361 71.7415 254.27 83.2984 254.179 94.9246Z" fill="url(#paint10_linear_464_1261)"/>
<path d="M246.056 98.2809L245.551 98.2518C245.614 91.8648 245.678 85.502 245.743 79.1635L246.246 79.1754C246.184 85.5245 246.121 91.893 246.056 98.2809Z" fill="url(#paint11_linear_464_1261)"/>
<path d="M238.097 107.234L237.605 107.196C237.903 82.4029 238.196 57.914 238.485 33.729L238.969 33.6973C238.683 57.906 238.392 82.4184 238.097 107.234Z" fill="url(#paint12_linear_464_1261)"/>
<path d="M230.815 81.2096L230.34 81.1964C230.658 58.3446 230.972 35.7513 231.281 13.4165L231.748 13.3662C231.441 35.7239 231.13 58.3384 230.815 81.2096Z" fill="url(#paint13_linear_464_1261)"/>
<path d="M223.998 45.7262L223.542 45.7461C223.618 40.9287 223.693 36.1232 223.768 31.3296L224.223 31.2965C224.149 36.0954 224.074 40.9053 223.998 45.7262Z" fill="url(#paint14_linear_464_1261)"/>
<path d="M216.67 59.0746L216.224 59.0813C216.401 49.0874 216.575 39.1433 216.747 29.2491L217.189 29.2147C217.017 39.1186 216.844 49.0719 216.67 59.0746Z" fill="url(#paint15_linear_464_1261)"/>
<path d="M209.771 57.9802L209.338 57.9894C209.55 46.9518 209.761 35.9754 209.972 25.0603L210.401 25.0233C210.194 35.948 209.984 46.9337 209.771 57.9802Z" fill="url(#paint16_linear_464_1261)"/>
<path d="M203.425 39.7442L203.005 39.7693C203.103 35.1045 203.201 30.4508 203.298 25.8081L203.716 25.7724C203.62 30.4195 203.523 35.0767 203.425 39.7442Z" fill="url(#paint17_linear_464_1261)"/>
<path d="M196.616 52.9854L196.207 52.9986C196.383 45.3226 196.556 37.6795 196.724 30.0696L197.132 30.0418C196.961 37.6588 196.789 45.3067 196.616 52.9854Z" fill="url(#paint18_linear_464_1261)"/>
<path d="M190.198 55.5555L189.801 55.5661C189.91 51.0505 190.018 46.5458 190.127 42.0522L190.524 42.0311C190.416 46.5282 190.308 51.0364 190.198 55.5555Z" fill="url(#paint19_linear_464_1261)"/>
<path d="M184.002 55.7435L183.614 55.7528C183.815 47.9179 184.016 40.1143 184.216 32.342L184.601 32.3129C184.403 40.0922 184.203 47.9024 184.002 55.7435Z" fill="url(#paint20_linear_464_1261)"/>
<path d="M177.877 59.2666L177.5 59.2745C177.676 52.6704 177.855 46.0893 178.037 39.5311L178.414 39.5073C178.236 46.0716 178.057 52.6581 177.877 59.2666Z" fill="url(#paint21_linear_464_1261)"/>
<path d="M171.753 67.9114H171.384C171.643 58.8995 171.901 49.9269 172.158 40.9935L172.525 40.9723C172.269 49.911 172.012 58.8907 171.753 67.9114Z" fill="url(#paint22_linear_464_1261)"/>
<path d="M166.07 66.1605H165.71C165.786 63.66 165.862 61.1639 165.937 58.6723H166.295C166.218 61.1631 166.143 63.6591 166.07 66.1605Z" fill="url(#paint23_linear_464_1261)"/>
<path d="M160.211 74.538H159.861C160.091 67.2413 160.32 59.9715 160.549 52.7286L160.898 52.718C160.67 59.9627 160.441 67.236 160.211 74.538Z" fill="url(#paint24_linear_464_1261)"/>
<path d="M154.67 76.9255L154.327 76.9176C154.568 69.5776 154.809 62.2642 155.05 54.9772L155.39 54.9679C155.152 62.2611 154.912 69.5803 154.67 76.9255Z" fill="url(#paint25_linear_464_1261)"/>
<path d="M149.282 78.5587L148.949 78.5494C149.131 73.2097 149.314 67.8841 149.495 62.5726H149.829C149.648 67.8841 149.466 73.2128 149.282 78.5587Z" fill="url(#paint26_linear_464_1261)"/>
<path d="M144.465 67.6825H144.139C144.269 64.0324 144.399 60.3897 144.528 56.7546L144.853 56.7454C144.723 60.3831 144.594 64.0288 144.465 67.6825Z" fill="url(#paint27_linear_464_1261)"/>
<path d="M139.031 77.7487L138.713 77.7408C138.988 70.2553 139.263 62.7998 139.536 55.3743L139.853 55.365C139.58 62.7967 139.306 70.2579 139.031 77.7487Z" fill="url(#paint28_linear_464_1261)"/>
<path d="M134.103 76.9705L133.794 76.9626C133.871 74.8918 133.95 72.8223 134.029 70.7542H134.34C134.261 72.825 134.182 74.8971 134.103 76.9705Z" fill="url(#paint29_linear_464_1261)"/>
<path d="M129.16 79.6572L128.856 79.6479C128.956 77.1201 129.055 74.5954 129.154 72.0737H129.457C129.358 74.5989 129.259 77.1267 129.16 79.6572Z" fill="url(#paint30_linear_464_1261)"/>
<path d="M123.542 101.653L123.246 101.627C123.732 89.6149 124.215 77.6747 124.694 65.8058H124.989C124.51 77.6835 124.027 89.6326 123.542 101.653Z" fill="url(#paint31_linear_464_1261)"/>
<path d="M119.14 95.7611L118.85 95.7399C118.993 92.343 119.134 88.9514 119.274 85.5651L119.564 85.5797C119.423 88.9642 119.281 92.358 119.14 95.7611Z" fill="url(#paint32_linear_464_1261)"/>
<path d="M114.466 99.0817L114.181 99.0578C114.316 95.9009 114.449 92.7485 114.578 89.6004L114.862 89.6163C114.733 92.7661 114.601 95.9212 114.466 99.0817Z" fill="url(#paint33_linear_464_1261)"/>
<path d="M109.887 102.356L109.609 102.331C109.849 96.8472 110.088 91.38 110.327 85.929L110.604 85.9423C110.366 91.3976 110.127 96.8688 109.887 102.356Z" fill="url(#paint34_linear_464_1261)"/>
<path d="M105.483 103.734L105.219 103.707C105.43 99.0168 105.64 94.337 105.849 89.6678L106.113 89.6837C105.904 94.3555 105.694 99.0388 105.483 103.734Z" fill="url(#paint35_linear_464_1261)"/>
<path d="M100.641 116.708L100.376 116.673C100.658 110.516 100.94 104.379 101.222 98.2611L101.487 98.2823C101.206 104.404 100.924 110.545 100.641 116.708Z" fill="url(#paint36_linear_464_1261)"/>
<path d="M96.6375 113.208L96.3728 113.175C96.5784 108.789 96.784 104.413 96.9895 100.045L97.2542 100.068C97.0495 104.438 96.844 108.818 96.6375 113.208Z" fill="url(#paint37_linear_464_1261)"/>
<path d="M92.3719 117.193L92.1178 117.159C92.6225 106.651 93.1241 96.1952 93.6226 85.7928L93.8754 85.806C93.376 96.2164 92.8748 106.679 92.3719 117.193Z" fill="url(#paint38_linear_464_1261)"/>
<path d="M88.9031 106.504L88.6543 106.476C89.0143 99.1147 89.3734 91.7805 89.7316 84.4732L89.9791 84.4851L88.9031 106.504Z" fill="url(#paint39_linear_464_1261)"/>
<path d="M85.527 96.0363L85.2834 96.0165C85.422 93.2398 85.5605 90.4663 85.699 87.6959L85.9425 87.7104C85.8049 90.4818 85.6664 93.2571 85.527 96.0363Z" fill="url(#paint40_linear_464_1261)"/>
<path d="M81.7167 96.1224L81.4785 96.1025C81.6735 92.2654 81.8681 88.4353 82.0622 84.6122L82.3004 84.6241C82.1054 88.4489 81.9108 92.2817 81.7167 96.1224Z" fill="url(#paint41_linear_464_1261)"/>
<path d="M77.8482 98.809L77.6152 98.7878C77.8923 93.4613 78.1676 88.1489 78.4411 82.8507L78.674 82.8599C78.3996 88.1626 78.1243 93.479 77.8482 98.809Z" fill="url(#paint42_linear_464_1261)"/>
<path d="M74.0896 100.715L73.8606 100.694C74.0371 97.3409 74.2135 93.9969 74.39 90.6618L74.6176 90.6763C74.442 94.0203 74.266 97.3664 74.0896 100.715Z" fill="url(#paint43_linear_464_1261)"/>
<path d="M70.3839 102.986L70.1603 102.962C70.4709 97.1573 70.7797 91.3689 71.0867 85.5969L71.3104 85.6088C71.0077 91.3844 70.6989 97.1767 70.3839 102.986Z" fill="url(#paint44_linear_464_1261)"/>
<path d="M67.2684 95.7928L67.0487 95.7743C67.1413 94.0688 67.2344 92.3641 67.328 90.6604L67.5463 90.675L67.2684 95.7928Z" fill="url(#paint45_linear_464_1261)"/>
<path d="M63.928 94.03L63.7136 94.0128C63.8416 91.6844 63.9704 89.3586 64.1001 87.0355L64.3145 87.0474C64.1865 89.3723 64.0577 91.6998 63.928 94.03Z" fill="url(#paint46_linear_464_1261)"/>
<path d="M60.4394 96.1819L60.229 96.1647C60.4884 91.5502 60.7469 86.9464 61.0046 82.3531L61.215 82.3623C60.9565 86.9583 60.698 91.5648 60.4394 96.1819Z" fill="url(#paint47_linear_464_1261)"/>
<path d="M57.3173 92.9633L57.1108 92.9474C57.3535 88.7123 57.5943 84.4891 57.8335 80.2779L58.0399 80.2858C57.799 84.5033 57.5582 88.7291 57.3173 92.9633Z" fill="url(#paint48_linear_464_1261)"/>
<path d="M53.9306 95.5533L53.7268 95.5361C54.0074 90.6834 54.2875 85.8435 54.5672 81.0163L54.7697 81.0243C54.4909 85.8576 54.2112 90.7006 53.9306 95.5533Z" fill="url(#paint49_linear_464_1261)"/>
<path d="M50.8204 94.3767L50.6206 94.3595C50.9735 88.3907 51.3225 82.4391 51.6675 76.5047H51.866C51.5184 82.447 51.1698 88.4044 50.8204 94.3767Z" fill="url(#paint50_linear_464_1261)"/>
<path d="M47.7024 94.3621L47.5078 94.3463C47.799 89.4441 48.0892 84.5539 48.3786 79.6757L48.5732 79.6836C48.2838 84.5645 47.9935 89.4574 47.7024 94.3621Z" fill="url(#paint51_linear_464_1261)"/>
<path d="M44.6016 95.0583L44.4097 95.0424C44.5711 92.3646 44.7322 89.6907 44.8927 87.0209L45.0833 87.0328C44.9219 89.7035 44.7613 92.3787 44.6016 95.0583Z" fill="url(#paint52_linear_464_1261)"/>
<path d="M41.6224 94.6533L41.4344 94.6361C41.67 90.7539 41.906 86.8793 42.1425 83.0121L42.3291 83.0214C42.0953 86.8912 41.8597 90.7685 41.6224 94.6533Z" fill="url(#paint53_linear_464_1261)"/>
<path d="M38.2661 101.273L38.0822 101.253C38.4995 94.4808 38.9155 87.7311 39.3302 81.0044L39.5141 81.0124C39.1003 87.7435 38.6843 94.4971 38.2661 101.273Z" fill="url(#paint54_linear_464_1261)"/>
<path d="M34.7828 110.632L34.6014 110.606C35.2402 100.378 35.8742 90.1986 36.5033 80.0688H36.6846C36.0555 90.2092 35.4215 100.397 34.7828 110.632Z" fill="url(#paint55_linear_464_1261)"/>
<path d="M30.9182 126.7L30.7395 126.665C31.6421 112.349 32.5385 98.1336 33.4288 84.0193L33.6061 84.0286C32.7141 98.1526 31.8181 112.376 30.9182 126.7Z" fill="url(#paint56_linear_464_1261)"/>
<path d="M28.585 119.155L28.4103 119.125C28.772 113.458 29.132 107.808 29.4902 102.175L29.6649 102.194C29.3067 107.831 28.9467 113.485 28.585 119.155Z" fill="url(#paint57_linear_464_1261)"/>
<path d="M25.9473 117.269L25.7753 117.241C26.1997 110.655 26.6223 104.091 27.0431 97.5491L27.2152 97.5663C26.7943 104.112 26.3717 110.68 25.9473 117.269Z" fill="url(#paint58_linear_464_1261)"/>
<path d="M23.5889 111.858L23.4208 111.833C23.8099 105.864 24.1972 99.9137 24.5828 93.981L24.7509 93.9956C24.3653 99.9317 23.9779 105.886 23.5889 111.858Z" fill="url(#paint59_linear_464_1261)"/>
<path d="M20.8268 113.446L20.66 113.421L21.9306 94.1067L22.096 94.1212C21.6743 100.546 21.2512 106.988 20.8268 113.446Z" fill="url(#paint60_linear_464_1261)"/>
<path d="M18.9805 101.874L18.8177 101.856C19.003 99.0631 19.1883 96.2741 19.3736 93.4887L19.5364 93.5032C19.3511 96.2887 19.1658 99.079 18.9805 101.874Z" fill="url(#paint61_linear_464_1261)"/>
<path d="M15.9577 108.744L15.7976 108.722C16.1946 102.798 16.5917 96.8913 16.9887 91.0019L17.1489 91.0151C16.7518 96.9072 16.3548 102.817 15.9577 108.744Z" fill="url(#paint62_linear_464_1261)"/>
<path d="M13.5147 107.576L13.3572 107.553C13.5336 104.935 13.7101 102.321 13.8866 99.7103L14.0441 99.7275C13.8676 102.34 13.6911 104.956 13.5147 107.576Z" fill="url(#paint63_linear_464_1261)"/>
<path d="M10.6559 113.13L10.5011 113.105C10.8399 108.134 11.1783 103.175 11.5162 98.228L11.671 98.2439C11.334 103.194 10.9956 108.156 10.6559 113.13Z" fill="url(#paint64_linear_464_1261)"/>
<path d="M7.81846 118.877L7.66626 118.849C8.17359 111.495 8.67827 104.167 9.1803 96.8662L9.3325 96.8821C8.82959 104.188 8.32491 111.519 7.81846 118.877Z" fill="url(#paint65_linear_464_1261)"/>
<path d="M5.43764 118.526L5.28809 118.498C5.6163 113.785 5.9432 109.084 6.26877 104.394L6.41832 104.413C6.09363 109.107 5.76674 113.812 5.43764 118.526Z" fill="url(#paint66_linear_464_1261)"/>
<path d="M3.31743 115.025L3.17053 115C3.29229 113.268 3.41361 111.538 3.53448 109.808L3.68139 109.831C3.56139 111.561 3.44008 113.293 3.31743 115.025Z" fill="url(#paint67_linear_464_1261)"/>
<path d="M0.163522 126.787L0.0179443 126.757C0.749379 116.41 1.47684 106.115 2.20033 95.8736L2.3446 95.8882C1.6211 106.134 0.894074 116.434 0.163522 126.787Z" fill="url(#paint68_linear_464_1261)"/>
<path d="M353.841 54.7826L346.639 54.9229C346.598 52.2142 346.557 49.5082 346.514 46.8048L353.699 46.5679C353.747 49.3039 353.794 52.0422 353.841 54.7826Z" fill="url(#paint69_linear_464_1261)"/>
<path d="M342.676 62.0101L335.715 62.071C335.691 60.1784 335.667 58.2885 335.645 56.4012L342.594 56.2755C342.622 58.1848 342.65 60.0964 342.676 62.0101Z" fill="url(#paint70_linear_464_1261)"/>
<path d="M331.853 67.8546H325.123C325.102 65.6682 325.08 63.484 325.058 61.3021L331.776 61.2346C331.802 63.4368 331.827 65.6435 331.853 67.8546Z" fill="url(#paint71_linear_464_1261)"/>
<path d="M321.416 78.1749L314.899 78.0571C314.862 72.9856 314.825 67.9268 314.788 62.8809L321.273 62.832C321.322 67.9326 321.37 73.0469 321.416 78.1749Z" fill="url(#paint72_linear_464_1261)"/>
<path d="M311.164 69.5088L304.881 69.4877C304.87 67.1054 304.859 64.7232 304.846 62.341L311.119 62.2867C311.134 64.691 311.149 67.0984 311.164 69.5088Z" fill="url(#paint73_linear_464_1261)"/>
<path d="M301.364 77.8189L295.276 77.7091C295.268 74.5477 295.261 71.3913 295.254 68.2397L301.328 68.2489C301.34 71.4297 301.352 74.6196 301.364 77.8189Z" fill="url(#paint74_linear_464_1261)"/>
<path d="M291.842 83.0121L285.943 82.848V71.903L291.826 71.9506C291.831 75.6316 291.836 79.3188 291.842 83.0121Z" fill="url(#paint75_linear_464_1261)"/>
<path d="M282.615 77.4761L276.912 77.3729C276.92 73.6795 276.928 69.9919 276.937 66.31L282.628 66.2981C282.622 70.017 282.617 73.743 282.615 77.4761Z" fill="url(#paint76_linear_464_1261)"/>
<path d="M273.735 61.8208L268.234 61.8764C268.252 57.6987 268.271 53.5289 268.289 49.367L273.774 49.1844C273.762 53.3877 273.75 57.5999 273.735 61.8208Z" fill="url(#paint77_linear_464_1261)"/>
<path d="M265.073 71.5907L259.729 71.5496C259.754 67.6445 259.78 63.7469 259.806 59.8568L265.134 59.7814C265.114 63.7112 265.094 67.6476 265.073 71.5907Z" fill="url(#paint78_linear_464_1261)"/>
<path d="M256.624 82.8401L251.434 82.6892C251.465 79.1988 251.495 75.7137 251.524 72.2338L256.705 72.2801C256.678 75.7961 256.651 79.3161 256.624 82.8401Z" fill="url(#paint79_linear_464_1261)"/>
<path d="M248.407 91.7152L243.361 91.4744C243.382 89.5527 243.402 87.6328 243.421 85.7147L248.464 85.8933C248.444 87.8335 248.425 89.7742 248.407 91.7152Z" fill="url(#paint80_linear_464_1261)"/>
<path d="M240.616 81.3592L235.728 81.2268C235.816 73.8154 235.909 66.4265 236.006 59.0601L240.868 58.9807C240.784 66.4133 240.7 73.8728 240.616 81.3592Z" fill="url(#paint81_linear_464_1261)"/>
<path d="M233.278 57.2602L228.56 57.3542C228.658 50.5136 228.756 43.696 228.854 36.9014L233.551 36.6181C233.461 43.4754 233.37 50.3561 233.278 57.2602Z" fill="url(#paint82_linear_464_1261)"/>
<path d="M226.142 40.5753L221.576 40.8201C221.599 39.3688 221.623 37.9182 221.647 36.4686L226.209 36.1854C226.186 37.6482 226.164 39.1116 226.142 40.5753Z" fill="url(#paint83_linear_464_1261)"/>
<path d="M218.862 48.5412L214.417 48.7106C214.471 45.7055 214.525 42.7056 214.579 39.7111L219.016 39.4596C218.963 42.4806 218.912 45.5078 218.862 48.5412Z" fill="url(#paint84_linear_464_1261)"/>
<path d="M211.946 46.3496L207.627 46.5362C207.693 43.2169 207.759 39.9039 207.823 36.597L212.127 36.3217C212.069 39.6595 212.008 43.0021 211.946 46.3496Z" fill="url(#paint85_linear_464_1261)"/>
<path d="M205.422 34.7348L201.231 35.0194C201.262 33.6139 201.292 32.2092 201.321 30.8055L205.509 30.4852C205.479 31.9013 205.45 33.3179 205.422 34.7348Z" fill="url(#paint86_linear_464_1261)"/>
<path d="M198.643 44.8713L194.558 45.0645C194.613 42.7555 194.666 40.4483 194.718 38.1428L198.797 37.89C198.747 40.214 198.695 42.5411 198.643 44.8713Z" fill="url(#paint87_linear_464_1261)"/>
<path d="M192.111 50.7673L188.13 50.9089C188.164 49.5483 188.198 48.1887 188.23 46.83L192.209 46.6539C192.176 48.0197 192.143 49.3909 192.111 50.7673Z" fill="url(#paint88_linear_464_1261)"/>
<path d="M185.963 47.4705L182.084 47.6439C182.146 45.2855 182.208 42.9293 182.27 40.5753L186.137 40.349C186.082 42.7188 186.024 45.0927 185.963 47.4705Z" fill="url(#paint89_linear_464_1261)"/>
<path d="M179.772 52.3025L175.996 52.4269C176.051 50.439 176.106 48.4538 176.16 46.4713L179.932 46.2966C179.879 48.295 179.826 50.297 179.772 52.3025Z" fill="url(#paint90_linear_464_1261)"/>
<path d="M173.687 58.4487L170.005 58.5228C170.083 55.8097 170.161 53.1006 170.241 50.3954L173.918 50.2551C173.842 52.9832 173.765 55.7144 173.687 58.4487Z" fill="url(#paint91_linear_464_1261)"/>
<path d="M167.768 63.5255L164.177 63.5572C164.199 62.8046 164.222 62.0511 164.245 61.2968L167.836 61.2465L167.768 63.5255Z" fill="url(#paint92_linear_464_1261)"/>
<path d="M162.035 66.9029H158.531C158.601 64.7042 158.671 62.5091 158.741 60.3174L162.242 60.2605C162.173 62.4733 162.104 64.6875 162.035 66.9029Z" fill="url(#paint93_linear_464_1261)"/>
<path d="M156.467 69.2521L153.049 69.2375C153.121 67.0273 153.194 64.8194 153.268 62.6136L156.684 62.5752C156.612 64.7969 156.54 67.0225 156.467 69.2521Z" fill="url(#paint94_linear_464_1261)"/>
<path d="M150.983 72.9922L147.646 72.9485C147.702 71.3374 147.758 69.7289 147.813 68.1231H151.147C151.092 69.7466 151.038 71.3696 150.983 72.9922Z" fill="url(#paint95_linear_464_1261)"/>
<path d="M146.069 63.8524L142.818 63.8789C142.858 62.7795 142.897 61.6797 142.936 60.5795L146.187 60.5265C146.147 61.6347 146.108 62.7433 146.069 63.8524Z" fill="url(#paint96_linear_464_1261)"/>
<path d="M140.754 69.927L137.578 69.9072C137.661 67.6529 137.745 65.403 137.828 63.1575L141.004 63.1244C140.92 65.3884 140.837 67.656 140.754 69.927Z" fill="url(#paint97_linear_464_1261)"/>
<path d="M135.588 74.8279L132.485 74.7749L132.556 72.8996L135.66 72.9406L135.588 74.8279Z" fill="url(#paint98_linear_464_1261)"/>
<path d="M130.633 77.0447L127.601 76.9732C127.632 76.2109 127.662 75.4481 127.691 74.6849L130.723 74.7405C130.692 75.5081 130.662 76.2762 130.633 77.0447Z" fill="url(#paint99_linear_464_1261)"/>
<path d="M125.39 89.1597L122.422 88.9995C122.571 85.3821 122.718 81.7756 122.865 78.1802L125.826 78.2609C125.681 81.8872 125.535 85.5201 125.39 89.1597Z" fill="url(#paint100_linear_464_1261)"/>
<path d="M120.599 92.2896L117.698 92.1123C117.741 91.0879 117.785 90.0635 117.83 89.0392L120.726 89.2006C120.683 90.2277 120.641 91.2573 120.599 92.2896Z" fill="url(#paint101_linear_464_1261)"/>
<path d="M115.887 95.8709L113.051 95.6644L113.174 92.8084L116.009 92.9937C115.969 93.9519 115.929 94.911 115.887 95.8709Z" fill="url(#paint102_linear_464_1261)"/>
<path d="M111.39 96.7153L108.611 96.5048L108.829 91.5511L111.601 91.7245C111.533 93.3868 111.462 95.0504 111.39 96.7153Z" fill="url(#paint103_linear_464_1261)"/>
<path d="M106.929 98.9268L104.217 98.7032C104.28 97.2915 104.344 95.8798 104.409 94.4681L107.119 94.6613L106.929 98.9268Z" fill="url(#paint104_linear_464_1261)"/>
<path d="M102.136 110.404L99.4802 110.102L99.7449 104.544L102.392 104.808C102.307 106.667 102.222 108.533 102.136 110.404Z" fill="url(#paint105_linear_464_1261)"/>
<path d="M98.027 108.748L95.4291 108.461L95.6157 104.491L98.2123 104.755C98.1506 106.085 98.0888 107.416 98.027 108.748Z" fill="url(#paint106_linear_464_1261)"/>
<path d="M94.0461 106.322L91.505 106.058C91.6585 102.895 91.8112 99.7367 91.9629 96.5843L94.5013 96.7854C94.3496 99.9591 94.1978 103.138 94.0461 106.322Z" fill="url(#paint107_linear_464_1261)"/>
<path d="M90.4013 98.899L87.9171 98.6859C88.0256 96.4678 88.1346 94.2519 88.244 92.0382L90.7268 92.2063C90.6183 94.4376 90.5098 96.6685 90.4013 98.899Z" fill="url(#paint108_linear_464_1261)"/>
<path d="M86.7697 93.2094L84.3385 93.0387C84.3809 92.2005 84.425 91.3623 84.4708 90.5241L86.9007 90.679C86.8548 91.5207 86.8112 92.3642 86.7697 93.2094Z" fill="url(#paint109_linear_464_1261)"/>
<path d="M82.9951 92.1824L80.6129 92.017L80.7916 88.5455L83.1738 88.6871C83.1174 89.8518 83.0578 91.0169 82.9951 92.1824Z" fill="url(#paint110_linear_464_1261)"/>
<path d="M79.1902 93.3127L76.8583 93.1433C76.9412 91.5366 77.025 89.9317 77.1097 88.3285L79.4404 88.4609L79.1902 93.3127Z" fill="url(#paint111_linear_464_1261)"/>
<path d="M75.3099 97.3042L73.0309 97.1097C73.0838 96.0986 73.1372 95.0883 73.191 94.0789L75.4753 94.2536C75.4189 95.2701 75.3637 96.2869 75.3099 97.3042Z" fill="url(#paint112_linear_464_1261)"/>
<path d="M71.7259 96.9985L69.4866 96.8093C69.5819 95.0579 69.6763 93.3087 69.7698 91.5617L72.0078 91.7179L71.7259 96.9985Z" fill="url(#paint113_linear_464_1261)"/>
<path d="M68.3563 94.0843L66.162 93.9149C66.1911 93.4005 66.2193 92.8852 66.2467 92.3691L68.4397 92.5292L68.3563 94.0843Z" fill="url(#paint114_linear_464_1261)"/>
<path d="M65.0344 91.6637L62.8838 91.5101C62.9235 90.8043 62.9628 90.1015 63.0016 89.4019L65.1509 89.5408C65.1103 90.2475 65.0715 90.9552 65.0344 91.6637Z" fill="url(#paint115_linear_464_1261)"/>
<path d="M61.6623 91.4227L59.5553 91.2732C59.6329 89.8809 59.711 88.4899 59.7896 87.1003L61.8965 87.2234L61.6623 91.4227Z" fill="url(#paint116_linear_464_1261)"/>
<path d="M58.5032 88.5958L56.4373 88.4635L56.6556 84.6347L58.7216 84.7419L58.5032 88.5958Z" fill="url(#paint117_linear_464_1261)"/>
<path d="M55.1376 90.54L53.1113 90.3984C53.1996 88.9346 53.2847 87.4718 53.3668 86.0098L55.3917 86.1249C55.307 87.5949 55.2223 89.0666 55.1376 90.54Z" fill="url(#paint118_linear_464_1261)"/>
<path d="M52.0831 88.1895L50.0979 88.0572C50.2038 86.2564 50.3097 84.4578 50.4155 82.6614L52.4007 82.7541C52.294 84.5663 52.1881 86.3781 52.0831 88.1895Z" fill="url(#paint119_linear_464_1261)"/>
<path d="M48.8868 89.2947L46.9374 89.1623C47.0256 87.6827 47.1138 86.2048 47.2021 84.7287L49.1529 84.8333C49.0629 86.3191 48.9742 87.8062 48.8868 89.2947Z" fill="url(#paint120_linear_464_1261)"/>
<path d="M45.6352 92.3241L43.7214 92.1759C43.7691 91.3685 43.8176 90.5608 43.867 89.7526L45.7807 89.8849C45.7313 90.6984 45.6828 91.5115 45.6352 92.3241Z" fill="url(#paint121_linear_464_1261)"/>
<path d="M42.7235 90.6565L40.8455 90.5241L41.0599 87.0117L42.9379 87.1281C42.862 88.2998 42.7905 89.4759 42.7235 90.6565Z" fill="url(#paint122_linear_464_1261)"/>
<path d="M39.5353 94.2603L37.6943 94.0975C37.8214 92.0558 37.9476 90.0159 38.0728 87.9778L39.9164 88.0982C39.7876 90.1522 39.6606 92.2062 39.5353 94.2603Z" fill="url(#paint123_linear_464_1261)"/>
<path d="M36.2677 100.019L34.4572 99.8294C34.6495 96.7484 34.8418 93.6722 35.0342 90.6009L36.8447 90.7332C36.6532 93.824 36.4609 96.9191 36.2677 100.019Z" fill="url(#paint124_linear_464_1261)"/>
<path d="M32.6652 111.842L30.8851 111.587C31.1578 107.28 31.4295 102.984 31.7004 98.6978L33.4791 98.8778C33.2083 103.191 32.9369 107.512 32.6652 111.842Z" fill="url(#paint125_linear_464_1261)"/>
<path d="M29.7535 113.347L28.0052 113.083C28.1155 111.374 28.2249 109.666 28.3335 107.959L30.0804 108.192C29.9702 109.913 29.8612 111.631 29.7535 113.347Z" fill="url(#paint126_linear_464_1261)"/>
<path d="M27.1648 110.491L25.4443 110.246C25.5732 108.261 25.7015 106.276 25.8295 104.291L27.55 104.501C27.422 106.497 27.2937 108.494 27.1648 110.491Z" fill="url(#paint127_linear_464_1261)"/>
<path d="M24.7562 105.712L23.0701 105.498C23.1883 103.696 23.3061 101.897 23.4234 100.101L25.1082 100.285C24.9917 102.093 24.8744 103.902 24.7562 105.712Z" fill="url(#paint128_linear_464_1261)"/>
<path d="M22.0179 106.79L20.3569 106.571C20.4858 104.623 20.6141 102.677 20.7421 100.733L22.399 100.919C22.2729 102.873 22.1458 104.83 22.0179 106.79Z" fill="url(#paint129_linear_464_1261)"/>
<path d="M19.9084 99.0313L18.2805 98.858C18.3379 98.0145 18.3943 97.1714 18.4499 96.3288L20.0765 96.489C20.0209 97.336 19.9648 98.1834 19.9084 99.0313Z" fill="url(#paint130_linear_464_1261)"/>
<path d="M17.0959 102.635L15.4958 102.443C15.6167 100.656 15.7367 98.8699 15.8558 97.0859L17.4546 97.2487C17.3355 99.0433 17.2159 100.839 17.0959 102.635Z" fill="url(#paint131_linear_464_1261)"/>
<path d="M14.4093 104.929L12.837 104.725C12.89 103.931 12.9434 103.141 12.9972 102.355L14.5708 102.545C14.517 103.339 14.4631 104.134 14.4093 104.929Z" fill="url(#paint132_linear_464_1261)"/>
<path d="M11.7081 108.028L10.1663 107.81C10.2695 106.31 10.3723 104.81 10.4746 103.31L12.0191 103.507C11.9141 105.013 11.8104 106.52 11.7081 108.028Z" fill="url(#paint133_linear_464_1261)"/>
<path d="M9.03478 111.291L7.51941 111.056C7.67117 108.838 7.82424 106.623 7.97865 104.411L9.49799 104.61C9.3427 106.833 9.1883 109.06 9.03478 111.291Z" fill="url(#paint134_linear_464_1261)"/>
<path d="M6.4606 113.707L4.96509 113.462L5.26287 109.198L6.75705 109.421C6.65471 110.852 6.55589 112.281 6.4606 113.707Z" fill="url(#paint135_linear_464_1261)"/>
<path d="M4.10879 113.322L2.63843 113.081C2.67548 112.558 2.7121 112.035 2.74828 111.512L4.21864 111.745C4.18159 112.27 4.14497 112.795 4.10879 113.322Z" fill="url(#paint136_linear_464_1261)"/>
<path d="M1.57972 116.078L0.133179 115.823C0.353756 112.707 0.574333 109.595 0.794911 106.488L2.24146 106.692C2.02088 109.817 1.8003 112.945 1.57972 116.078Z" fill="url(#paint137_linear_464_1261)"/>
<path d="M8.04998 110.645L7.58545 110.269L22.043 92.381L31.6976 107.169L47.0114 83.5588L64.3554 63.691L75.6327 81.8952L88.3127 70.9925L105.258 98.2082L114.202 81.5418L133.825 59.5273L145.394 38.4935L152.052 53.0132L171.087 31.4183L185.954 6.08852L192.985 17.3062L205.246 -6L211.957 4.49904L219.104 -5.62943L240.667 55.1811L261.383 15.9245L270.94 31.8987L279.414 27.1078L279.568 27.3328L303.417 61.9969L319.884 44.8991L329.828 55.0964L354.325 20.1159L366.359 38.3069L365.862 38.6365L354.312 21.176L329.904 56.0294L319.888 45.7567L303.34 62.9379L303.132 62.6362L279.232 27.8966L270.727 32.7047L261.415 17.1408L240.56 56.6634L218.927 -4.34302L211.932 5.5684L205.296 -4.81285L193.03 18.5013L185.971 7.23861L171.569 31.7677L151.892 54.0958L145.346 39.8196L134.31 59.8688L114.688 81.8806L105.297 99.3993L88.1751 71.8991L75.4924 82.8031L64.2734 64.6915L47.4865 83.9174L31.699 108.264L21.9913 93.3935L8.04998 110.645Z" fill="url(#paint138_linear_464_1261)"/>
<defs>
<linearGradient id="paint0_linear_464_1261" x1="350.155" y1="37.3235" x2="350.155" y2="64.2825" gradientUnits="userSpaceOnUse">
<stop stop-color="#FCD909"/>
<stop offset="1" stop-color="#FEA400"/>
</linearGradient>
<linearGradient id="paint1_linear_464_1261" x1="339.138" y1="49.7932" x2="339.138" y2="68.6181" gradientUnits="userSpaceOnUse">
<stop stop-color="#FCD909"/>
<stop offset="1" stop-color="#FEA400"/>
</linearGradient>
<linearGradient id="paint2_linear_464_1261" x1="328.435" y1="53.708" x2="328.435" y2="75.4604" gradientUnits="userSpaceOnUse">
<stop stop-color="#FCD909"/>
<stop offset="1" stop-color="#FEA400"/>
</linearGradient>
<linearGradient id="paint3_linear_464_1261" x1="318.084" y1="45.4403" x2="318.084" y2="95.8246" gradientUnits="userSpaceOnUse">
<stop stop-color="#FCD909"/>
<stop offset="1" stop-color="#FEA400"/>
</linearGradient>
<linearGradient id="paint4_linear_464_1261" x1="307.986" y1="54.0746" x2="307.986" y2="77.799" gradientUnits="userSpaceOnUse">
<stop stop-color="#FCD909"/>
<stop offset="1" stop-color="#FEA400"/>
</linearGradient>
<linearGradient id="paint5_linear_464_1261" x1="298.29" y1="57.3409" x2="298.29" y2="88.7745" gradientUnits="userSpaceOnUse">
<stop stop-color="#FCD909"/>
<stop offset="1" stop-color="#FEA400"/>
</linearGradient>
<linearGradient id="paint6_linear_464_1261" x1="288.875" y1="59.3473" x2="288.875" y2="95.6737" gradientUnits="userSpaceOnUse">
<stop stop-color="#FCD909"/>
<stop offset="1" stop-color="#FEA400"/>
</linearGradient>
<linearGradient id="paint7_linear_464_1261" x1="279.761" y1="53.5849" x2="279.761" y2="90.3018" gradientUnits="userSpaceOnUse">
<stop stop-color="#FCD909"/>
<stop offset="1" stop-color="#FEA400"/>
</linearGradient>
<linearGradient id="paint8_linear_464_1261" x1="270.993" y1="34.899" x2="270.993" y2="76.4107" gradientUnits="userSpaceOnUse">
<stop stop-color="#FCD909"/>
<stop offset="1" stop-color="#FEA400"/>
</linearGradient>
<linearGradient id="paint9_linear_464_1261" x1="262.426" y1="46.3813" x2="262.426" y2="85.1787" gradientUnits="userSpaceOnUse">
<stop stop-color="#FCD909"/>
<stop offset="1" stop-color="#FEA400"/>
</linearGradient>
<linearGradient id="paint10_linear_464_1261" x1="254.054" y1="60.2538" x2="254.054" y2="94.9246" gradientUnits="userSpaceOnUse">
<stop stop-color="#FCD909"/>
<stop offset="1" stop-color="#FEA400"/>
</linearGradient>
<linearGradient id="paint11_linear_464_1261" x1="245.898" y1="79.1635" x2="245.898" y2="98.2809" gradientUnits="userSpaceOnUse">
<stop stop-color="#FCD909"/>
<stop offset="1" stop-color="#FEA400"/>
</linearGradient>
<linearGradient id="paint12_linear_464_1261" x1="238.287" y1="33.6973" x2="238.287" y2="107.234" gradientUnits="userSpaceOnUse">
<stop stop-color="#FCD909"/>
<stop offset="1" stop-color="#FEA400"/>
</linearGradient>
<linearGradient id="paint13_linear_464_1261" x1="231.044" y1="13.3662" x2="231.044" y2="81.2096" gradientUnits="userSpaceOnUse">
<stop stop-color="#FCD909"/>
<stop offset="1" stop-color="#FEA400"/>
</linearGradient>
<linearGradient id="paint14_linear_464_1261" x1="223.883" y1="31.2965" x2="223.883" y2="45.7461" gradientUnits="userSpaceOnUse">
<stop stop-color="#FCD909"/>
<stop offset="1" stop-color="#FEA400"/>
</linearGradient>
<linearGradient id="paint15_linear_464_1261" x1="216.707" y1="29.2147" x2="216.707" y2="59.0813" gradientUnits="userSpaceOnUse">
<stop stop-color="#FCD909"/>
<stop offset="1" stop-color="#FEA400"/>
</linearGradient>
<linearGradient id="paint16_linear_464_1261" x1="209.87" y1="25.0233" x2="209.87" y2="57.9894" gradientUnits="userSpaceOnUse">
<stop stop-color="#FCD909"/>
<stop offset="1" stop-color="#FEA400"/>
</linearGradient>
<linearGradient id="paint17_linear_464_1261" x1="203.361" y1="25.7724" x2="203.361" y2="39.7693" gradientUnits="userSpaceOnUse">
<stop stop-color="#FCD909"/>
<stop offset="1" stop-color="#FEA400"/>
</linearGradient>
<linearGradient id="paint18_linear_464_1261" x1="196.669" y1="30.0418" x2="196.669" y2="52.9986" gradientUnits="userSpaceOnUse">
<stop stop-color="#FCD909"/>
<stop offset="1" stop-color="#FEA400"/>
</linearGradient>
<linearGradient id="paint19_linear_464_1261" x1="190.163" y1="42.0311" x2="190.163" y2="55.5661" gradientUnits="userSpaceOnUse">
<stop stop-color="#FCD909"/>
<stop offset="1" stop-color="#FEA400"/>
</linearGradient>
<linearGradient id="paint20_linear_464_1261" x1="184.108" y1="32.3129" x2="184.108" y2="55.7528" gradientUnits="userSpaceOnUse">
<stop stop-color="#FCD909"/>
<stop offset="1" stop-color="#FEA400"/>
</linearGradient>
<linearGradient id="paint21_linear_464_1261" x1="177.957" y1="39.5073" x2="177.957" y2="59.2745" gradientUnits="userSpaceOnUse">
<stop stop-color="#FCD909"/>
<stop offset="1" stop-color="#FEA400"/>
</linearGradient>
<linearGradient id="paint22_linear_464_1261" x1="171.954" y1="40.9723" x2="171.954" y2="67.9114" gradientUnits="userSpaceOnUse">
<stop stop-color="#FCD909"/>
<stop offset="1" stop-color="#FEA400"/>
</linearGradient>
<linearGradient id="paint23_linear_464_1261" x1="166.003" y1="58.6723" x2="166.003" y2="66.1605" gradientUnits="userSpaceOnUse">
<stop stop-color="#FCD909"/>
<stop offset="1" stop-color="#FEA400"/>
</linearGradient>
<linearGradient id="paint24_linear_464_1261" x1="160.379" y1="52.718" x2="160.379" y2="74.538" gradientUnits="userSpaceOnUse">
<stop stop-color="#FCD909"/>
<stop offset="1" stop-color="#FEA400"/>
</linearGradient>
<linearGradient id="paint25_linear_464_1261" x1="154.859" y1="54.9679" x2="154.859" y2="76.9255" gradientUnits="userSpaceOnUse">
<stop stop-color="#FCD909"/>
<stop offset="1" stop-color="#FEA400"/>
</linearGradient>
<linearGradient id="paint26_linear_464_1261" x1="149.389" y1="62.5726" x2="149.389" y2="78.5587" gradientUnits="userSpaceOnUse">
<stop stop-color="#FCD909"/>
<stop offset="1" stop-color="#FEA400"/>
</linearGradient>
<linearGradient id="paint27_linear_464_1261" x1="144.496" y1="56.7454" x2="144.496" y2="67.6825" gradientUnits="userSpaceOnUse">
<stop stop-color="#FCD909"/>
<stop offset="1" stop-color="#FEA400"/>
</linearGradient>
<linearGradient id="paint28_linear_464_1261" x1="139.283" y1="55.365" x2="139.283" y2="77.7487" gradientUnits="userSpaceOnUse">
<stop stop-color="#FCD909"/>
<stop offset="1" stop-color="#FEA400"/>
</linearGradient>
<linearGradient id="paint29_linear_464_1261" x1="134.067" y1="70.7542" x2="134.067" y2="76.9705" gradientUnits="userSpaceOnUse">
<stop stop-color="#FCD909"/>
<stop offset="1" stop-color="#FEA400"/>
</linearGradient>
<linearGradient id="paint30_linear_464_1261" x1="129.156" y1="72.0737" x2="129.156" y2="79.6572" gradientUnits="userSpaceOnUse">
<stop stop-color="#FCD909"/>
<stop offset="1" stop-color="#FEA400"/>
</linearGradient>
<linearGradient id="paint31_linear_464_1261" x1="124.117" y1="65.8058" x2="124.117" y2="101.653" gradientUnits="userSpaceOnUse">
<stop stop-color="#FCD909"/>
<stop offset="1" stop-color="#FEA400"/>
</linearGradient>
<linearGradient id="paint32_linear_464_1261" x1="119.207" y1="85.5651" x2="119.207" y2="95.7611" gradientUnits="userSpaceOnUse">
<stop stop-color="#FCD909"/>
<stop offset="1" stop-color="#FEA400"/>
</linearGradient>
<linearGradient id="paint33_linear_464_1261" x1="114.521" y1="89.6004" x2="114.521" y2="99.0817" gradientUnits="userSpaceOnUse">
<stop stop-color="#FCD909"/>
<stop offset="1" stop-color="#FEA400"/>
</linearGradient>
<linearGradient id="paint34_linear_464_1261" x1="110.106" y1="85.929" x2="110.106" y2="102.356" gradientUnits="userSpaceOnUse">
<stop stop-color="#FCD909"/>
<stop offset="1" stop-color="#FEA400"/>
</linearGradient>
<linearGradient id="paint35_linear_464_1261" x1="105.666" y1="89.6678" x2="105.666" y2="103.734" gradientUnits="userSpaceOnUse">
<stop stop-color="#FCD909"/>
<stop offset="1" stop-color="#FEA400"/>
</linearGradient>
<linearGradient id="paint36_linear_464_1261" x1="100.931" y1="98.2611" x2="100.931" y2="116.708" gradientUnits="userSpaceOnUse">
<stop stop-color="#FCD909"/>
<stop offset="1" stop-color="#FEA400"/>
</linearGradient>
<linearGradient id="paint37_linear_464_1261" x1="96.8135" y1="100.045" x2="96.8135" y2="113.208" gradientUnits="userSpaceOnUse">
<stop stop-color="#FCD909"/>
<stop offset="1" stop-color="#FEA400"/>
</linearGradient>
<linearGradient id="paint38_linear_464_1261" x1="92.9966" y1="85.7928" x2="92.9966" y2="117.193" gradientUnits="userSpaceOnUse">
<stop stop-color="#FCD909"/>
<stop offset="1" stop-color="#FEA400"/>
</linearGradient>
<linearGradient id="paint39_linear_464_1261" x1="89.3167" y1="84.4732" x2="89.3167" y2="106.504" gradientUnits="userSpaceOnUse">
<stop stop-color="#FCD909"/>
<stop offset="1" stop-color="#FEA400"/>
</linearGradient>
<linearGradient id="paint40_linear_464_1261" x1="85.613" y1="87.6959" x2="85.613" y2="96.0363" gradientUnits="userSpaceOnUse">
<stop stop-color="#FCD909"/>
<stop offset="1" stop-color="#FEA400"/>
</linearGradient>
<linearGradient id="paint41_linear_464_1261" x1="81.8895" y1="84.6122" x2="81.8895" y2="96.1224" gradientUnits="userSpaceOnUse">
<stop stop-color="#FCD909"/>
<stop offset="1" stop-color="#FEA400"/>
</linearGradient>
<linearGradient id="paint42_linear_464_1261" x1="78.1446" y1="82.8507" x2="78.1446" y2="98.809" gradientUnits="userSpaceOnUse">
<stop stop-color="#FCD909"/>
<stop offset="1" stop-color="#FEA400"/>
</linearGradient>
<linearGradient id="paint43_linear_464_1261" x1="74.2391" y1="90.6618" x2="74.2391" y2="100.715" gradientUnits="userSpaceOnUse">
<stop stop-color="#FCD909"/>
<stop offset="1" stop-color="#FEA400"/>
</linearGradient>
<linearGradient id="paint44_linear_464_1261" x1="70.7353" y1="85.5969" x2="70.7353" y2="102.986" gradientUnits="userSpaceOnUse">
<stop stop-color="#FCD909"/>
<stop offset="1" stop-color="#FEA400"/>
</linearGradient>
<linearGradient id="paint45_linear_464_1261" x1="67.2975" y1="90.6604" x2="67.2975" y2="95.7928" gradientUnits="userSpaceOnUse">
<stop stop-color="#FCD909"/>
<stop offset="1" stop-color="#FEA400"/>
</linearGradient>
<linearGradient id="paint46_linear_464_1261" x1="64.014" y1="87.0355" x2="64.014" y2="94.03" gradientUnits="userSpaceOnUse">
<stop stop-color="#FCD909"/>
<stop offset="1" stop-color="#FEA400"/>
</linearGradient>
<linearGradient id="paint47_linear_464_1261" x1="60.722" y1="82.3531" x2="60.722" y2="96.1819" gradientUnits="userSpaceOnUse">
<stop stop-color="#FCD909"/>
<stop offset="1" stop-color="#FEA400"/>
</linearGradient>
<linearGradient id="paint48_linear_464_1261" x1="57.5754" y1="80.2779" x2="57.5754" y2="92.9633" gradientUnits="userSpaceOnUse">
<stop stop-color="#FCD909"/>
<stop offset="1" stop-color="#FEA400"/>
</linearGradient>
<linearGradient id="paint49_linear_464_1261" x1="54.2482" y1="81.0163" x2="54.2482" y2="95.5533" gradientUnits="userSpaceOnUse">
<stop stop-color="#FCD909"/>
<stop offset="1" stop-color="#FEA400"/>
</linearGradient>
<linearGradient id="paint50_linear_464_1261" x1="51.2433" y1="76.5047" x2="51.2433" y2="94.3767" gradientUnits="userSpaceOnUse">
<stop stop-color="#FCD909"/>
<stop offset="1" stop-color="#FEA400"/>
</linearGradient>
<linearGradient id="paint51_linear_464_1261" x1="48.0405" y1="79.6757" x2="48.0405" y2="94.3621" gradientUnits="userSpaceOnUse">
<stop stop-color="#FCD909"/>
<stop offset="1" stop-color="#FEA400"/>
</linearGradient>
<linearGradient id="paint52_linear_464_1261" x1="44.7465" y1="87.0209" x2="44.7465" y2="95.0583" gradientUnits="userSpaceOnUse">
<stop stop-color="#FCD909"/>
<stop offset="1" stop-color="#FEA400"/>
</linearGradient>
<linearGradient id="paint53_linear_464_1261" x1="41.8818" y1="83.0121" x2="41.8818" y2="94.6533" gradientUnits="userSpaceOnUse">
<stop stop-color="#FCD909"/>
<stop offset="1" stop-color="#FEA400"/>
</linearGradient>
<linearGradient id="paint54_linear_464_1261" x1="38.7981" y1="81.0044" x2="38.7981" y2="101.273" gradientUnits="userSpaceOnUse">
<stop stop-color="#FCD909"/>
<stop offset="1" stop-color="#FEA400"/>
</linearGradient>
<linearGradient id="paint55_linear_464_1261" x1="35.643" y1="80.0688" x2="35.643" y2="110.632" gradientUnits="userSpaceOnUse">
<stop stop-color="#FCD909"/>
<stop offset="1" stop-color="#FEA400"/>
</linearGradient>
<linearGradient id="paint56_linear_464_1261" x1="32.1728" y1="84.0193" x2="32.1728" y2="126.7" gradientUnits="userSpaceOnUse">
<stop stop-color="#FCD909"/>
<stop offset="1" stop-color="#FEA400"/>
</linearGradient>
<linearGradient id="paint57_linear_464_1261" x1="29.0376" y1="102.175" x2="29.0376" y2="119.155" gradientUnits="userSpaceOnUse">
<stop stop-color="#FCD909"/>
<stop offset="1" stop-color="#FEA400"/>
</linearGradient>
<linearGradient id="paint58_linear_464_1261" x1="26.4952" y1="97.5491" x2="26.4952" y2="117.269" gradientUnits="userSpaceOnUse">
<stop stop-color="#FCD909"/>
<stop offset="1" stop-color="#FEA400"/>
</linearGradient>
<linearGradient id="paint59_linear_464_1261" x1="24.0858" y1="93.981" x2="24.0858" y2="111.858" gradientUnits="userSpaceOnUse">
<stop stop-color="#FCD909"/>
<stop offset="1" stop-color="#FEA400"/>
</linearGradient>
<linearGradient id="paint60_linear_464_1261" x1="21.378" y1="94.1067" x2="21.378" y2="113.446" gradientUnits="userSpaceOnUse">
<stop stop-color="#FCD909"/>
<stop offset="1" stop-color="#FEA400"/>
</linearGradient>
<linearGradient id="paint61_linear_464_1261" x1="19.1771" y1="93.4887" x2="19.1771" y2="101.874" gradientUnits="userSpaceOnUse">
<stop stop-color="#FCD909"/>
<stop offset="1" stop-color="#FEA400"/>
</linearGradient>
<linearGradient id="paint62_linear_464_1261" x1="16.4732" y1="91.0019" x2="16.4732" y2="108.744" gradientUnits="userSpaceOnUse">
<stop stop-color="#FCD909"/>
<stop offset="1" stop-color="#FEA400"/>
</linearGradient>
<linearGradient id="paint63_linear_464_1261" x1="13.7006" y1="99.7103" x2="13.7006" y2="107.576" gradientUnits="userSpaceOnUse">
<stop stop-color="#FCD909"/>
<stop offset="1" stop-color="#FEA400"/>
</linearGradient>
<linearGradient id="paint64_linear_464_1261" x1="11.0861" y1="98.228" x2="11.0861" y2="113.13" gradientUnits="userSpaceOnUse">
<stop stop-color="#FCD909"/>
<stop offset="1" stop-color="#FEA400"/>
</linearGradient>
<linearGradient id="paint65_linear_464_1261" x1="8.49938" y1="96.8662" x2="8.49938" y2="118.877" gradientUnits="userSpaceOnUse">
<stop stop-color="#FCD909"/>
<stop offset="1" stop-color="#FEA400"/>
</linearGradient>
<linearGradient id="paint66_linear_464_1261" x1="5.8532" y1="104.394" x2="5.8532" y2="118.526" gradientUnits="userSpaceOnUse">
<stop stop-color="#FCD909"/>
<stop offset="1" stop-color="#FEA400"/>
</linearGradient>
<linearGradient id="paint67_linear_464_1261" x1="3.42596" y1="109.808" x2="3.42596" y2="115.025" gradientUnits="userSpaceOnUse">
<stop stop-color="#FCD909"/>
<stop offset="1" stop-color="#FEA400"/>
</linearGradient>
<linearGradient id="paint68_linear_464_1261" x1="1.18127" y1="95.8736" x2="1.18127" y2="126.787" gradientUnits="userSpaceOnUse">
<stop stop-color="#FCD909"/>
<stop offset="1" stop-color="#FEA400"/>
</linearGradient>
<linearGradient id="paint69_linear_464_1261" x1="350.178" y1="46.5679" x2="350.178" y2="54.9229" gradientUnits="userSpaceOnUse">
<stop stop-color="#FCD909"/>
<stop offset="1" stop-color="#FEA400"/>
</linearGradient>
<linearGradient id="paint70_linear_464_1261" x1="339.16" y1="56.2755" x2="339.16" y2="62.071" gradientUnits="userSpaceOnUse">
<stop stop-color="#FCD909"/>
<stop offset="1" stop-color="#FEA400"/>
</linearGradient>
<linearGradient id="paint71_linear_464_1261" x1="328.455" y1="61.2346" x2="328.455" y2="67.8546" gradientUnits="userSpaceOnUse">
<stop stop-color="#FCD909"/>
<stop offset="1" stop-color="#FEA400"/>
</linearGradient>
<linearGradient id="paint72_linear_464_1261" x1="318.102" y1="62.832" x2="318.102" y2="78.1749" gradientUnits="userSpaceOnUse">
<stop stop-color="#FCD909"/>
<stop offset="1" stop-color="#FEA400"/>
</linearGradient>
<linearGradient id="paint73_linear_464_1261" x1="308.005" y1="62.2867" x2="308.005" y2="69.5088" gradientUnits="userSpaceOnUse">
<stop stop-color="#FCD909"/>
<stop offset="1" stop-color="#FEA400"/>
</linearGradient>
<linearGradient id="paint74_linear_464_1261" x1="298.309" y1="68.2397" x2="298.309" y2="77.8189" gradientUnits="userSpaceOnUse">
<stop stop-color="#FCD909"/>
<stop offset="1" stop-color="#FEA400"/>
</linearGradient>
<linearGradient id="paint75_linear_464_1261" x1="288.892" y1="71.903" x2="288.892" y2="83.0121" gradientUnits="userSpaceOnUse">
<stop stop-color="#FCD909"/>
<stop offset="1" stop-color="#FEA400"/>
</linearGradient>
<linearGradient id="paint76_linear_464_1261" x1="279.77" y1="66.2981" x2="279.77" y2="77.4761" gradientUnits="userSpaceOnUse">
<stop stop-color="#FCD909"/>
<stop offset="1" stop-color="#FEA400"/>
</linearGradient>
<linearGradient id="paint77_linear_464_1261" x1="271.004" y1="49.1844" x2="271.004" y2="61.8764" gradientUnits="userSpaceOnUse">
<stop stop-color="#FCD909"/>
<stop offset="1" stop-color="#FEA400"/>
</linearGradient>
<linearGradient id="paint78_linear_464_1261" x1="262.432" y1="59.7814" x2="262.432" y2="71.5907" gradientUnits="userSpaceOnUse">
<stop stop-color="#FCD909"/>
<stop offset="1" stop-color="#FEA400"/>
</linearGradient>
<linearGradient id="paint79_linear_464_1261" x1="254.069" y1="72.2338" x2="254.069" y2="82.8401" gradientUnits="userSpaceOnUse">
<stop stop-color="#FCD909"/>
<stop offset="1" stop-color="#FEA400"/>
</linearGradient>
<linearGradient id="paint80_linear_464_1261" x1="245.912" y1="85.7147" x2="245.912" y2="91.7152" gradientUnits="userSpaceOnUse">
<stop stop-color="#FCD909"/>
<stop offset="1" stop-color="#FEA400"/>
</linearGradient>
<linearGradient id="paint81_linear_464_1261" x1="238.298" y1="58.9807" x2="238.298" y2="81.3592" gradientUnits="userSpaceOnUse">
<stop stop-color="#FCD909"/>
<stop offset="1" stop-color="#FEA400"/>
</linearGradient>
<linearGradient id="paint82_linear_464_1261" x1="231.056" y1="36.6181" x2="231.056" y2="57.3542" gradientUnits="userSpaceOnUse">
<stop stop-color="#FCD909"/>
<stop offset="1" stop-color="#FEA400"/>
</linearGradient>
<linearGradient id="paint83_linear_464_1261" x1="223.892" y1="36.1854" x2="223.892" y2="40.8201" gradientUnits="userSpaceOnUse">
<stop stop-color="#FCD909"/>
<stop offset="1" stop-color="#FEA400"/>
</linearGradient>
<linearGradient id="paint84_linear_464_1261" x1="216.716" y1="39.4596" x2="216.716" y2="48.7106" gradientUnits="userSpaceOnUse">
<stop stop-color="#FCD909"/>
<stop offset="1" stop-color="#FEA400"/>
</linearGradient>
<linearGradient id="paint85_linear_464_1261" x1="209.877" y1="36.3217" x2="209.877" y2="46.5362" gradientUnits="userSpaceOnUse">
<stop stop-color="#FCD909"/>
<stop offset="1" stop-color="#FEA400"/>
</linearGradient>
<linearGradient id="paint86_linear_464_1261" x1="203.37" y1="30.4852" x2="203.37" y2="35.0194" gradientUnits="userSpaceOnUse">
<stop stop-color="#FCD909"/>
<stop offset="1" stop-color="#FEA400"/>
</linearGradient>
<linearGradient id="paint87_linear_464_1261" x1="196.677" y1="37.89" x2="196.677" y2="45.0645" gradientUnits="userSpaceOnUse">
<stop stop-color="#FCD909"/>
<stop offset="1" stop-color="#FEA400"/>
</linearGradient>
<linearGradient id="paint88_linear_464_1261" x1="190.169" y1="46.6539" x2="190.169" y2="50.9089" gradientUnits="userSpaceOnUse">
<stop stop-color="#FCD909"/>
<stop offset="1" stop-color="#FEA400"/>
</linearGradient>
<linearGradient id="paint89_linear_464_1261" x1="184.11" y1="40.349" x2="184.11" y2="47.6439" gradientUnits="userSpaceOnUse">
<stop stop-color="#FCD909"/>
<stop offset="1" stop-color="#FEA400"/>
</linearGradient>
<linearGradient id="paint90_linear_464_1261" x1="177.964" y1="46.2966" x2="177.964" y2="52.4269" gradientUnits="userSpaceOnUse">
<stop stop-color="#FCD909"/>
<stop offset="1" stop-color="#FEA400"/>
</linearGradient>
<linearGradient id="paint91_linear_464_1261" x1="171.962" y1="50.2551" x2="171.962" y2="58.5228" gradientUnits="userSpaceOnUse">
<stop stop-color="#FCD909"/>
<stop offset="1" stop-color="#FEA400"/>
</linearGradient>
<linearGradient id="paint92_linear_464_1261" x1="166.006" y1="61.2465" x2="166.006" y2="63.5572" gradientUnits="userSpaceOnUse">
<stop stop-color="#FCD909"/>
<stop offset="1" stop-color="#FEA400"/>
</linearGradient>
<linearGradient id="paint93_linear_464_1261" x1="160.386" y1="60.2605" x2="160.386" y2="66.9029" gradientUnits="userSpaceOnUse">
<stop stop-color="#FCD909"/>
<stop offset="1" stop-color="#FEA400"/>
</linearGradient>
<linearGradient id="paint94_linear_464_1261" x1="154.866" y1="62.5752" x2="154.866" y2="69.2521" gradientUnits="userSpaceOnUse">
<stop stop-color="#FCD909"/>
<stop offset="1" stop-color="#FEA400"/>
</linearGradient>
<linearGradient id="paint95_linear_464_1261" x1="149.397" y1="68.1231" x2="149.397" y2="72.9922" gradientUnits="userSpaceOnUse">
<stop stop-color="#FCD909"/>
<stop offset="1" stop-color="#FEA400"/>
</linearGradient>
<linearGradient id="paint96_linear_464_1261" x1="144.502" y1="60.5265" x2="144.502" y2="63.8789" gradientUnits="userSpaceOnUse">
<stop stop-color="#FCD909"/>
<stop offset="1" stop-color="#FEA400"/>
</linearGradient>
<linearGradient id="paint97_linear_464_1261" x1="139.291" y1="63.1244" x2="139.291" y2="69.927" gradientUnits="userSpaceOnUse">
<stop stop-color="#FCD909"/>
<stop offset="1" stop-color="#FEA400"/>
</linearGradient>
<linearGradient id="paint98_linear_464_1261" x1="134.072" y1="72.8996" x2="134.072" y2="74.8279" gradientUnits="userSpaceOnUse">
<stop stop-color="#FCD909"/>
<stop offset="1" stop-color="#FEA400"/>
</linearGradient>
<linearGradient id="paint99_linear_464_1261" x1="129.162" y1="74.6849" x2="129.162" y2="77.0447" gradientUnits="userSpaceOnUse">
<stop stop-color="#FCD909"/>
<stop offset="1" stop-color="#FEA400"/>
</linearGradient>
<linearGradient id="paint100_linear_464_1261" x1="124.124" y1="78.1802" x2="124.124" y2="89.1597" gradientUnits="userSpaceOnUse">
<stop stop-color="#FCD909"/>
<stop offset="1" stop-color="#FEA400"/>
</linearGradient>
<linearGradient id="paint101_linear_464_1261" x1="119.212" y1="89.0392" x2="119.212" y2="92.2896" gradientUnits="userSpaceOnUse">
<stop stop-color="#FCD909"/>
<stop offset="1" stop-color="#FEA400"/>
</linearGradient>
<linearGradient id="paint102_linear_464_1261" x1="114.53" y1="92.8084" x2="114.53" y2="95.8709" gradientUnits="userSpaceOnUse">
<stop stop-color="#FCD909"/>
<stop offset="1" stop-color="#FEA400"/>
</linearGradient>
<linearGradient id="paint103_linear_464_1261" x1="110.106" y1="91.5511" x2="110.106" y2="96.7153" gradientUnits="userSpaceOnUse">
<stop stop-color="#FCD909"/>
<stop offset="1" stop-color="#FEA400"/>
</linearGradient>
<linearGradient id="paint104_linear_464_1261" x1="105.668" y1="94.4681" x2="105.668" y2="98.9268" gradientUnits="userSpaceOnUse">
<stop stop-color="#FCD909"/>
<stop offset="1" stop-color="#FEA400"/>
</linearGradient>
<linearGradient id="paint105_linear_464_1261" x1="100.936" y1="104.544" x2="100.936" y2="110.404" gradientUnits="userSpaceOnUse">
<stop stop-color="#FCD909"/>
<stop offset="1" stop-color="#FEA400"/>
</linearGradient>
<linearGradient id="paint106_linear_464_1261" x1="96.8207" y1="104.491" x2="96.8207" y2="108.748" gradientUnits="userSpaceOnUse">
<stop stop-color="#FCD909"/>
<stop offset="1" stop-color="#FEA400"/>
</linearGradient>
<linearGradient id="paint107_linear_464_1261" x1="93.0032" y1="96.5843" x2="93.0032" y2="106.322" gradientUnits="userSpaceOnUse">
<stop stop-color="#FCD909"/>
<stop offset="1" stop-color="#FEA400"/>
</linearGradient>
<linearGradient id="paint108_linear_464_1261" x1="89.322" y1="92.0382" x2="89.322" y2="98.899" gradientUnits="userSpaceOnUse">
<stop stop-color="#FCD909"/>
<stop offset="1" stop-color="#FEA400"/>
</linearGradient>
<linearGradient id="paint109_linear_464_1261" x1="85.6196" y1="90.5241" x2="85.6196" y2="93.2094" gradientUnits="userSpaceOnUse">
<stop stop-color="#FCD909"/>
<stop offset="1" stop-color="#FEA400"/>
</linearGradient>
<linearGradient id="paint110_linear_464_1261" x1="81.8934" y1="88.5455" x2="81.8934" y2="92.1824" gradientUnits="userSpaceOnUse">
<stop stop-color="#FCD909"/>
<stop offset="1" stop-color="#FEA400"/>
</linearGradient>
<linearGradient id="paint111_linear_464_1261" x1="78.1493" y1="88.3285" x2="78.1493" y2="93.3127" gradientUnits="userSpaceOnUse">
<stop stop-color="#FCD909"/>
<stop offset="1" stop-color="#FEA400"/>
</linearGradient>
<linearGradient id="paint112_linear_464_1261" x1="74.2531" y1="94.0789" x2="74.2531" y2="97.3042" gradientUnits="userSpaceOnUse">
<stop stop-color="#FCD909"/>
<stop offset="1" stop-color="#FEA400"/>
</linearGradient>
<linearGradient id="paint113_linear_464_1261" x1="70.7472" y1="91.5617" x2="70.7472" y2="96.9985" gradientUnits="userSpaceOnUse">
<stop stop-color="#FCD909"/>
<stop offset="1" stop-color="#FEA400"/>
</linearGradient>
<linearGradient id="paint114_linear_464_1261" x1="67.3008" y1="92.3691" x2="67.3008" y2="94.0843" gradientUnits="userSpaceOnUse">
<stop stop-color="#FCD909"/>
<stop offset="1" stop-color="#FEA400"/>
</linearGradient>
<linearGradient id="paint115_linear_464_1261" x1="64.0173" y1="89.4019" x2="64.0173" y2="91.6637" gradientUnits="userSpaceOnUse">
<stop stop-color="#FCD909"/>
<stop offset="1" stop-color="#FEA400"/>
</linearGradient>
<linearGradient id="paint116_linear_464_1261" x1="60.7259" y1="87.1003" x2="60.7259" y2="91.4227" gradientUnits="userSpaceOnUse">
<stop stop-color="#FCD909"/>
<stop offset="1" stop-color="#FEA400"/>
</linearGradient>
<linearGradient id="paint117_linear_464_1261" x1="57.5794" y1="84.6347" x2="57.5794" y2="88.5958" gradientUnits="userSpaceOnUse">
<stop stop-color="#FCD909"/>
<stop offset="1" stop-color="#FEA400"/>
</linearGradient>
<linearGradient id="paint118_linear_464_1261" x1="54.2515" y1="86.0098" x2="54.2515" y2="90.54" gradientUnits="userSpaceOnUse">
<stop stop-color="#FCD909"/>
<stop offset="1" stop-color="#FEA400"/>
</linearGradient>
<linearGradient id="paint119_linear_464_1261" x1="51.2493" y1="82.6614" x2="51.2493" y2="88.1895" gradientUnits="userSpaceOnUse">
<stop stop-color="#FCD909"/>
<stop offset="1" stop-color="#FEA400"/>
</linearGradient>
<linearGradient id="paint120_linear_464_1261" x1="48.0451" y1="84.7287" x2="48.0451" y2="89.2947" gradientUnits="userSpaceOnUse">
<stop stop-color="#FCD909"/>
<stop offset="1" stop-color="#FEA400"/>
</linearGradient>
<linearGradient id="paint121_linear_464_1261" x1="44.7511" y1="89.7526" x2="44.7511" y2="92.3241" gradientUnits="userSpaceOnUse">
<stop stop-color="#FCD909"/>
<stop offset="1" stop-color="#FEA400"/>
</linearGradient>
<linearGradient id="paint122_linear_464_1261" x1="41.8917" y1="87.0117" x2="41.8917" y2="90.6565" gradientUnits="userSpaceOnUse">
<stop stop-color="#FCD909"/>
<stop offset="1" stop-color="#FEA400"/>
</linearGradient>
<linearGradient id="paint123_linear_464_1261" x1="38.8054" y1="87.9778" x2="38.8054" y2="94.2603" gradientUnits="userSpaceOnUse">
<stop stop-color="#FCD909"/>
<stop offset="1" stop-color="#FEA400"/>
</linearGradient>
<linearGradient id="paint124_linear_464_1261" x1="35.6509" y1="90.6009" x2="35.6509" y2="100.019" gradientUnits="userSpaceOnUse">
<stop stop-color="#FCD909"/>
<stop offset="1" stop-color="#FEA400"/>
</linearGradient>
<linearGradient id="paint125_linear_464_1261" x1="32.1821" y1="98.6978" x2="32.1821" y2="111.842" gradientUnits="userSpaceOnUse">
<stop stop-color="#FCD909"/>
<stop offset="1" stop-color="#FEA400"/>
</linearGradient>
<linearGradient id="paint126_linear_464_1261" x1="29.0428" y1="107.959" x2="29.0428" y2="113.347" gradientUnits="userSpaceOnUse">
<stop stop-color="#FCD909"/>
<stop offset="1" stop-color="#FEA400"/>
</linearGradient>
<linearGradient id="paint127_linear_464_1261" x1="26.4971" y1="104.291" x2="26.4971" y2="110.491" gradientUnits="userSpaceOnUse">
<stop stop-color="#FCD909"/>
<stop offset="1" stop-color="#FEA400"/>
</linearGradient>
<linearGradient id="paint128_linear_464_1261" x1="24.0891" y1="100.101" x2="24.0891" y2="105.712" gradientUnits="userSpaceOnUse">
<stop stop-color="#FCD909"/>
<stop offset="1" stop-color="#FEA400"/>
</linearGradient>
<linearGradient id="paint129_linear_464_1261" x1="21.378" y1="100.733" x2="21.378" y2="106.79" gradientUnits="userSpaceOnUse">
<stop stop-color="#FCD909"/>
<stop offset="1" stop-color="#FEA400"/>
</linearGradient>
<linearGradient id="paint130_linear_464_1261" x1="19.1785" y1="96.3288" x2="19.1785" y2="99.0313" gradientUnits="userSpaceOnUse">
<stop stop-color="#FCD909"/>
<stop offset="1" stop-color="#FEA400"/>
</linearGradient>
<linearGradient id="paint131_linear_464_1261" x1="16.4752" y1="97.0859" x2="16.4752" y2="102.635" gradientUnits="userSpaceOnUse">
<stop stop-color="#FCD909"/>
<stop offset="1" stop-color="#FEA400"/>
</linearGradient>
<linearGradient id="paint132_linear_464_1261" x1="13.7039" y1="102.355" x2="13.7039" y2="104.929" gradientUnits="userSpaceOnUse">
<stop stop-color="#FCD909"/>
<stop offset="1" stop-color="#FEA400"/>
</linearGradient>
<linearGradient id="paint133_linear_464_1261" x1="11.0927" y1="103.31" x2="11.0927" y2="108.028" gradientUnits="userSpaceOnUse">
<stop stop-color="#FCD909"/>
<stop offset="1" stop-color="#FEA400"/>
</linearGradient>
<linearGradient id="paint134_linear_464_1261" x1="8.5087" y1="104.411" x2="8.5087" y2="111.291" gradientUnits="userSpaceOnUse">
<stop stop-color="#FCD909"/>
<stop offset="1" stop-color="#FEA400"/>
</linearGradient>
<linearGradient id="paint135_linear_464_1261" x1="5.86107" y1="109.198" x2="5.86107" y2="113.707" gradientUnits="userSpaceOnUse">
<stop stop-color="#FCD909"/>
<stop offset="1" stop-color="#FEA400"/>
</linearGradient>
<linearGradient id="paint136_linear_464_1261" x1="3.42854" y1="111.512" x2="3.42854" y2="113.322" gradientUnits="userSpaceOnUse">
<stop stop-color="#FCD909"/>
<stop offset="1" stop-color="#FEA400"/>
</linearGradient>
<linearGradient id="paint137_linear_464_1261" x1="1.18732" y1="106.488" x2="1.18732" y2="116.078" gradientUnits="userSpaceOnUse">
<stop stop-color="#FCD909"/>
<stop offset="1" stop-color="#FEA400"/>
</linearGradient>
<linearGradient id="paint138_linear_464_1261" x1="186.972" y1="-6" x2="186.972" y2="110.645" gradientUnits="userSpaceOnUse">
<stop stop-color="#FCD909"/>
<stop offset="1" stop-color="#FEA400"/>
</linearGradient>
</defs>
</svg>
