<svg width="20" height="20" viewBox="0 0 20 20" fill="none" xmlns="http://www.w3.org/2000/svg">
<path d="M2 12C2 10.25 2.41667 8.69167 3.25 7.325C4.08333 5.95833 5 4.80833 6 3.875C7 2.94167 7.91667 2.22917 8.75 1.7375L10 1V4.3C10 4.91667 10.2083 5.40417 10.625 5.7625C11.0417 6.12083 11.5083 6.3 12.025 6.3C12.3083 6.3 12.5792 6.24167 12.8375 6.125C13.0958 6.00833 13.3333 5.81667 13.55 5.55L14 5C15.2 5.7 16.1667 6.67083 16.9 7.9125C17.6333 9.15417 18 10.5167 18 12C18 13.4667 17.6417 14.8042 16.925 16.0125C16.2083 17.2208 15.2667 18.175 14.1 18.875C14.3833 18.475 14.6042 18.0375 14.7625 17.5625C14.9208 17.0875 15 16.5833 15 16.05C15 15.3833 14.875 14.7542 14.625 14.1625C14.375 13.5708 14.0167 13.0417 13.55 12.575L10 9.1L6.475 12.575C5.99167 13.0583 5.625 13.5917 5.375 14.175C5.125 14.7583 5 15.3833 5 16.05C5 16.5833 5.07917 17.0875 5.2375 17.5625C5.39583 18.0375 5.61667 18.475 5.9 18.875C4.73333 18.175 3.79167 17.2208 3.075 16.0125C2.35833 14.8042 2 13.4667 2 12ZM10 11.9L12.125 13.975C12.4083 14.2583 12.625 14.575 12.775 14.925C12.925 15.275 13 15.65 13 16.05C13 16.8667 12.7083 17.5625 12.125 18.1375C11.5417 18.7125 10.8333 19 10 19C9.16667 19 8.45833 18.7125 7.875 18.1375C7.29167 17.5625 7 16.8667 7 16.05C7 15.6667 7.075 15.2958 7.225 14.9375C7.375 14.5792 7.59167 14.2583 7.875 13.975L10 11.9Z" fill="white"/>
</svg>
