<svg width="25" height="26" viewBox="0 0 25 26" fill="none" xmlns="http://www.w3.org/2000/svg">
<path d="M12.5 18.2L14.25 16.38L12.25 14.3H17.5V11.7H12.25L14.25 9.62L12.5 7.8L7.5 13L12.5 18.2ZM12.5 26C10.7708 26 9.14583 25.6587 7.625 24.9762C6.10417 24.2937 4.78125 23.3675 3.65625 22.1975C2.53125 21.0275 1.64063 19.6517 0.984375 18.07C0.328125 16.4883 0 14.7983 0 13C0 11.2017 0.328125 9.51167 0.984375 7.93C1.64063 6.34833 2.53125 4.9725 3.65625 3.8025C4.78125 2.6325 6.10417 1.70625 7.625 1.02375C9.14583 0.34125 10.7708 0 12.5 0C14.2292 0 15.8542 0.34125 17.375 1.02375C18.8958 1.70625 20.2188 2.6325 21.3438 3.8025C22.4688 4.9725 23.3594 6.34833 24.0156 7.93C24.6719 9.51167 25 11.2017 25 13C25 14.7983 24.6719 16.4883 24.0156 18.07C23.3594 19.6517 22.4688 21.0275 21.3438 22.1975C20.2188 23.3675 18.8958 24.2937 17.375 24.9762C15.8542 25.6587 14.2292 26 12.5 26Z" fill="white"/>
</svg>
