<svg viewBox="0 0 12 8" fill="none" xmlns="http://www.w3.org/2000/svg">
<path d="M6.37383 7.33468L11.8574 1.39447C11.9489 1.29535 12 1.16367 12 1.02674C12 0.889801 11.9489 0.75812 11.8574 0.659005L11.8512 0.652609C11.8068 0.604393 11.7534 0.566 11.6942 0.539765C11.635 0.513529 11.5712 0.5 11.5068 0.5C11.4424 0.5 11.3786 0.513529 11.3194 0.539765C11.2602 0.566 11.2068 0.604393 11.1624 0.652609L5.99897 6.2464L0.837608 0.652608C0.793231 0.604393 0.739813 0.565999 0.680606 0.539764C0.6214 0.513528 0.557641 0.499999 0.493208 0.499999C0.428775 0.499999 0.365017 0.513528 0.30581 0.539764C0.246603 0.565999 0.193185 0.604392 0.148807 0.652608L0.142611 0.659004C0.0510689 0.758119 1.53156e-06 0.8898 1.51958e-06 1.02674C1.50761e-06 1.16367 0.0510688 1.29535 0.142611 1.39447L5.62617 7.33468C5.67439 7.38692 5.73239 7.42851 5.79665 7.45693C5.86091 7.48535 5.93009 7.5 6 7.5C6.06991 7.5 6.13909 7.48535 6.20335 7.45693C6.26761 7.42851 6.32561 7.38692 6.37383 7.33468Z" fill="currentColor"/>
</svg>
