<svg viewBox="0 0 23 22" fill="none" xmlns="http://www.w3.org/2000/svg">
<g clip-path="url(#clip0_464_3211)">
<path d="M22.0489 0.00298821C17.7544 -0.0740118 12.8566 2.1709 9.75645 5.65332C6.79378 5.70924 3.90903 6.92382 1.78511 9.04774C1.66136 9.16966 1.61736 9.35207 1.67145 9.51707C1.72645 9.68299 1.86945 9.80307 2.04178 9.82782L5.57461 10.3338L5.13828 10.8224C4.97603 11.0039 4.98428 11.2798 5.15661 11.4522L11.048 17.3436C11.1369 17.4325 11.2543 17.4774 11.3725 17.4774C11.4816 17.4774 11.5907 17.4389 11.6778 17.361L12.1664 16.9247L12.6724 20.4575C12.6971 20.6298 12.8328 20.7563 12.9969 20.8113C13.039 20.8251 13.083 20.8315 13.1279 20.8315C13.2581 20.8315 13.391 20.7747 13.4827 20.6839C15.5773 18.5893 16.7919 15.7046 16.8478 12.7419C20.3339 9.63532 22.5971 4.73941 22.4972 0.450322C22.4908 0.206488 22.2937 0.00940488 22.0489 0.00298821ZM17.8249 7.91566C17.3785 8.36207 16.7919 8.58574 16.2043 8.58574C15.6167 8.58574 15.03 8.36207 14.5836 7.91566C13.6908 7.02191 13.6908 5.56807 14.5836 4.67432C15.4774 3.78057 16.9312 3.78057 17.8249 4.67432C18.7187 5.56807 18.7187 7.02282 17.8249 7.91566Z" fill="currentColor"/>
<path d="M2.99705 15.496C2.01622 16.4768 0.669636 20.908 0.519303 21.4094C0.470719 21.5708 0.515636 21.7458 0.633886 21.865C0.721886 21.953 0.838303 21.9998 0.958386 21.9998C1.00239 21.9998 1.04639 21.9933 1.09039 21.9805C1.5918 21.8302 6.02297 20.4836 7.0038 19.5027C8.10839 18.3982 8.10839 16.6006 7.0038 15.496C5.8983 14.3914 4.10164 14.3923 2.99705 15.496Z" fill="currentColor"/>
</g>
</svg>
