<svg viewBox="0 0 18 18" fill="none" xmlns="http://www.w3.org/2000/svg">
<path d="M16.0501 5.15756C16.1214 5.22893 16.1824 5.30808 16.2349 5.39204L16.6866 4.94029C17.0112 4.61571 17.0112 4.08776 16.6866 3.76318L14.2368 1.31333C13.9122 0.988749 13.3843 0.988749 13.0597 1.31333L12.607 1.76598C12.6908 1.81858 12.7707 1.8782 12.8424 1.94992L16.0501 5.15756Z" fill="currentColor"/>
<path d="M8.65441 6.93594C8.59276 6.87429 8.53968 6.80702 8.49269 6.7365L0.433246 15.8073C-0.00440151 16.2998 0.0177685 17.0505 0.483646 17.5163C0.950166 17.9828 1.70093 18.004 2.19271 17.5668L11.2621 9.50856C11.1917 9.46113 11.1252 9.40693 11.0639 9.34559L8.65441 6.93594Z" fill="currentColor"/>
<path d="M8.44196 5.35457C8.46901 5.30637 8.49496 5.25763 8.52863 5.21238L10.8475 2.09548C10.8965 2.02962 10.9528 1.97068 11.0124 1.91579C9.50611 0.833439 5.01131 -1.73529 0.0943297 1.81037C0.0192442 1.86446 -0.0154879 1.95876 0.00653374 2.04863C0.0287037 2.13849 0.103051 2.20604 0.194688 2.2192C0.251647 2.22743 5.60609 3.02368 8.44196 5.35457Z" fill="currentColor"/>
<path d="M16.0834 6.98668C16.0284 7.04617 15.9704 7.10345 15.9043 7.15261L12.7876 9.47137C12.7426 9.50481 12.6948 9.53254 12.6468 9.55973C14.9754 12.3949 15.7725 17.7483 15.7807 17.8053C15.7939 17.8969 15.8614 17.9713 15.9513 17.9935C16.0398 18.0154 16.1355 17.9812 16.1896 17.9057C19.7358 12.9877 17.1653 8.49196 16.0834 6.98668Z" fill="currentColor"/>
<path d="M12.1528 5.11364C11.9649 5.11364 11.7769 5.18518 11.6339 5.32825C11.3477 5.6144 11.3477 6.07998 11.6339 6.36613C11.92 6.65228 12.3856 6.65228 12.6717 6.36613C12.9579 6.07998 12.9579 5.6144 12.6717 5.32825C12.5287 5.18518 12.3407 5.11364 12.1528 5.11364Z" fill="currentColor"/>
<path d="M15.9809 6.15538C15.9992 5.90367 15.9074 5.65699 15.729 5.47859L12.5214 2.27094C12.343 2.09239 12.0953 2.00075 11.8446 2.01908C11.593 2.03756 11.3623 2.16423 11.2118 2.36657L8.89294 5.48347C8.63783 5.82637 8.6733 6.3128 8.97541 6.61491L11.3851 9.02456C11.5521 9.19158 11.7754 9.27715 11.9996 9.27715C12.1811 9.27715 12.3631 9.22114 12.5165 9.10703L15.6334 6.78828C15.8357 6.63767 15.9624 6.40694 15.9809 6.15538ZM12.9927 6.68718C12.7611 6.91879 12.4569 7.03452 12.1528 7.03452C11.8486 7.03452 11.5444 6.91879 11.3128 6.68718C10.8496 6.22397 10.8496 5.47046 11.3128 5.00724C11.776 4.54403 12.5295 4.54403 12.9927 5.00724C13.4559 5.47046 13.4559 6.22397 12.9927 6.68718Z" fill="currentColor"/>
</svg>
