<svg width="16" height="16" viewBox="0 0 16 16" fill="none" xmlns="http://www.w3.org/2000/svg">
<path d="M15.4339 12.7032L10.9254 8.19493C10.8735 8.14252 10.8449 8.07357 10.8449 7.99964C10.8449 7.92572 10.8735 7.85676 10.9254 7.8049L15.3677 3.36283C16.1186 2.61201 16.1803 1.39115 15.5051 0.640878C15.1459 0.242019 14.6538 0.0147298 14.1192 0.000938002C13.589 -0.0156122 13.0814 0.187403 12.7035 0.565851L8.19505 5.07357C8.09078 5.17728 7.90927 5.17728 7.805 5.07357L3.36272 0.632603C2.61186 -0.118223 1.39095 -0.180011 0.640637 0.495237C0.241758 0.854376 0.0144585 1.34647 0.000666054 1.88104C-0.0131264 2.41616 0.187692 2.91929 0.565606 3.29718L5.07409 7.80545C5.12595 7.85786 5.15464 7.92682 5.15464 8.00019C5.15464 8.07357 5.12595 8.14308 5.07409 8.19549L0.63181 12.6376C-0.119053 13.3884 -0.180843 14.6092 0.494437 15.3595C0.864627 15.7716 1.38047 16.0006 1.93272 16C2.448 16 2.93074 15.8003 3.29652 15.4345L7.805 10.9268C7.90927 10.8231 8.09078 10.8231 8.19505 10.9268L12.6373 15.3689C13.3882 16.1197 14.6091 16.1815 15.3594 15.5063C15.7583 15.1471 15.9856 14.655 15.9994 14.1205C16.0126 13.5842 15.8118 13.0811 15.4339 12.7032Z" fill="white"/>
</svg>
