<svg width="20" height="20" viewBox="0 0 20 20" fill="none" xmlns="http://www.w3.org/2000/svg">
<path fill-rule="evenodd" clip-rule="evenodd" d="M11 4H18C19.1046 4 20 4.89543 20 6V18C20 19.1046 19.1046 20 18 20H11C9.89543 20 9 19.1046 9 18V16V11.5501V8.82054V6C9 4.89543 9.89543 4 11 4ZM14.0883 8.02507C13.1442 8.02507 12.3789 8.81749 12.3789 9.79499C12.3789 10.7725 13.1442 11.5649 14.0883 11.5649C15.0324 11.5649 15.7977 10.7725 15.7977 9.79499C15.7977 8.81749 15.0324 8.02507 14.0883 8.02507ZM10.5556 14.2788C10.5556 13.3013 11.3209 12.5089 12.265 12.5089H12.4203C12.5044 12.5089 12.588 12.5226 12.668 12.5497L13.0625 12.6831C13.7291 12.9084 14.4476 12.9084 15.1142 12.6831L15.5087 12.5497C15.5886 12.5226 15.6722 12.5089 15.7563 12.5089H15.9117C16.8558 12.5089 17.6211 13.3013 17.6211 14.2788V14.8396C17.6211 15.1952 17.3722 15.4983 17.0334 15.5556C15.0829 15.8853 13.0937 15.8853 11.1433 15.5556C10.8044 15.4983 10.5556 15.1952 10.5556 14.8396V14.2788ZM17.963 9.20501C18.1518 9.20501 18.3048 9.3635 18.3048 9.559V10.1627C18.3048 10.2855 18.4043 10.385 18.5271 10.385H19.1026C19.2914 10.385 19.4444 10.5434 19.4444 10.7389C19.4444 10.9344 19.2914 11.0929 19.1026 11.0929H18.5271C18.4043 11.0929 18.3048 11.1924 18.3048 11.3152V11.9189C18.3048 12.1144 18.1518 12.2729 17.963 12.2729C17.7741 12.2729 17.6211 12.1144 17.6211 11.9189V11.3152C17.6211 11.1924 17.5216 11.0929 17.3989 11.0929H16.8234C16.6346 11.0929 16.4815 10.9344 16.4815 10.7389C16.4815 10.5434 16.6346 10.385 16.8234 10.385H17.3989C17.5216 10.385 17.6211 10.2855 17.6211 10.1627V9.559C17.6211 9.3635 17.7741 9.20501 17.963 9.20501Z" fill="white"/>
<path fill-rule="evenodd" clip-rule="evenodd" d="M2 0H9C10.1046 0 11 0.895431 11 2V3.62225C10 3.62225 8.56177 4.4 8.55049 6C8.54687 6.51303 8.54509 7.45103 8.5445 8.57662C8.37255 8.51644 8.18833 8.48381 7.99676 8.48381H7.84138C7.75728 8.48381 7.67371 8.49758 7.59376 8.5246L7.19923 8.65799C6.53266 8.88336 5.81414 8.88336 5.14757 8.65799L4.75303 8.5246C4.67309 8.49758 4.58952 8.48381 4.50542 8.48381H4.35003C3.40596 8.48381 2.64063 9.27623 2.64063 10.2537V10.8146C2.64063 11.1701 2.88947 11.4732 3.22833 11.5305C4.98802 11.828 6.77923 11.8571 8.54508 11.6178C8.54627 13.2636 8.54854 14.895 8.55049 16H2C0.89543 16 0 15.1046 0 14V2C0 0.895431 0.895431 0 2 0ZM9 11.5501C9.0395 11.5437 9.07899 11.5372 9.11846 11.5305C9.45733 11.4732 9.70616 11.1701 9.70616 10.8146V10.2537C9.70616 9.66433 9.42791 9.14222 9 8.82054V11.5501ZM4.464 5.76992C4.464 4.79242 5.22932 4 6.1734 4C7.11748 4 7.8828 4.79242 7.8828 5.76992C7.8828 6.74743 7.11748 7.53985 6.1734 7.53985C5.22932 7.53985 4.464 6.74743 4.464 5.76992ZM2.61196 5.53393C2.61196 5.33843 2.45889 5.17995 2.27008 5.17995C2.08126 5.17995 1.9282 5.33843 1.9282 5.53393V6.13768C1.9282 6.26041 1.8287 6.3599 1.70597 6.3599H1.13047C0.941659 6.3599 0.788593 6.51838 0.788593 6.71388C0.788593 6.90938 0.941659 7.06787 1.13047 7.06787H1.70597C1.8287 7.06787 1.9282 7.16736 1.9282 7.29009V7.89383C1.9282 8.08933 2.08126 8.24782 2.27008 8.24782C2.45889 8.24782 2.61196 8.08933 2.61196 7.89383V7.29009C2.61196 7.16736 2.71145 7.06787 2.83418 7.06787H3.40968C3.59849 7.06787 3.75156 6.90938 3.75156 6.71388C3.75156 6.51838 3.59849 6.3599 3.40968 6.3599H2.83418C2.71145 6.3599 2.61196 6.26041 2.61196 6.13768V5.53393Z" fill="white"/>
</svg>
