<svg viewBox="0 0 23 22" fill="none" xmlns="http://www.w3.org/2000/svg">
<path d="M21.5781 16.4913H6.81403C6.32874 16.4911 5.92809 16.112 5.90081 15.6275L5.89786 15.5752H18.5227C19.8681 15.58 21.018 14.6071 21.236 13.2794L22.4542 5.95051C22.7056 4.45467 21.6968 3.03825 20.201 2.78682C20.0506 2.76155 19.8983 2.74883 19.7458 2.74883H5.12247C4.96562 1.73501 4.25553 0.893733 3.28243 0.568911L1.71097 0.0468881C1.23071 -0.112504 0.712136 0.147627 0.552744 0.627888C0.393352 1.10815 0.653518 1.62672 1.13378 1.78611L2.70204 2.30688C3.05903 2.42595 3.30766 2.75027 3.32991 3.12594L4.07159 15.7327C4.12406 16.6459 4.62822 17.4728 5.41595 17.9378C4.69176 19.273 5.18712 20.9426 6.52238 21.6668C7.85765 22.391 9.52719 21.8956 10.2514 20.5604C10.6241 19.8732 10.6868 19.0599 10.4238 18.3237H16.2414C15.7305 19.7531 16.4752 21.326 17.9046 21.8369C19.334 22.3478 20.9069 21.6031 21.4178 20.1737C21.6315 19.5756 21.6315 18.9219 21.4178 18.3237H21.5781C22.0841 18.3237 22.4943 17.9135 22.4943 17.4076C22.4943 16.9016 22.0841 16.4913 21.5781 16.4913ZM16.0811 6.41352C16.0811 5.90752 16.4912 5.49734 16.9972 5.49734C17.5032 5.49734 17.9134 5.90752 17.9134 6.41352V11.9105C17.9134 12.4165 17.5032 12.8267 16.9972 12.8267C16.4912 12.8267 16.0811 12.4165 16.0811 11.9105V6.41352ZM11.9583 6.41352C11.9583 5.90752 12.3685 5.49734 12.8745 5.49734C13.3805 5.49734 13.7907 5.90752 13.7907 6.41352V11.9105C13.7907 12.4165 13.3805 12.8267 12.8745 12.8267C12.3685 12.8267 11.9583 12.4165 11.9583 11.9105V6.41352ZM7.83555 6.41352C7.83555 5.90752 8.24573 5.49734 8.75172 5.49734C9.25771 5.49734 9.66789 5.90752 9.66789 6.41352V11.9105C9.66789 12.4165 9.25771 12.8267 8.75172 12.8267C8.24573 12.8267 7.83555 12.4165 7.83555 11.9105V6.41352Z" fill="currentColor"/>
</svg>
