<svg width="27" height="27" viewBox="0 0 27 27" fill="none" xmlns="http://www.w3.org/2000/svg">
<path d="M0.00567627 24.7685L2.23721 27L17.7967 11.4399L15.5657 9.20893L0.00567627 24.7685Z" fill="black"/>
<path d="M25.0747 4.16922L22.8363 1.93083L21.1576 3.61002L23.3955 5.84788L25.0747 4.16922Z" fill="black"/>
<path d="M12.8556 4.81288C13.7567 5.44066 14.4836 6.05895 14.9384 6.47149C15.3102 6.09978 18.4556 2.95433 18.4556 2.95433C15.5342 0.216929 10.6611 -0.522642 7.49996 0.342433L5.45465 2.38774L7.19714 2.50222C9.26303 2.63832 11.3136 3.73879 12.8556 4.81288Z" fill="black"/>
<path d="M26.9485 15.46C26.7227 12.8196 25.7251 10.4461 24.0507 8.55013C22.9543 9.64627 21.6301 10.9709 20.534 12.0673C21.6509 13.3002 24.2881 16.5356 24.5028 19.8085L24.6173 21.551L26.6631 19.5057C26.7538 19.0916 27.1219 17.9082 26.9485 15.46Z" fill="black"/>
<path d="M16.1194 7.52783L19.4762 4.171L22.8331 7.52783L19.4762 10.8847L16.1194 7.52783Z" fill="black"/>
</svg>
