<svg viewBox="0 0 30 29" fill="none" xmlns="http://www.w3.org/2000/svg">
<g style="mix-blend-mode:soft-light">
<path fill-rule="evenodd" clip-rule="evenodd" d="M15.1014 11.4983L19.0413 7.55838C17.2601 3.15683 21.5751 -1.29666 26.0337 0.350468C26.2655 0.436167 26.3307 0.733994 26.1559 0.908617L22.8024 4.26209L23.6564 5.96759L25.3614 6.82153L28.715 3.46772C28.8906 3.29208 29.188 3.35894 29.2733 3.5899C30.9218 8.0478 26.4666 12.3631 22.0654 10.5826L18.9105 13.7381L18.2174 13.0452C17.7828 12.6107 17.131 12.5464 16.6402 13.0372L15.1014 11.4983ZM14.3803 18.2683L11.2254 21.4232C12.675 25.0052 10.0466 28.9702 6.13008 28.9702C5.75996 28.9702 4.12319 28.8605 4.019 28.3857C3.99422 28.2728 4.02884 28.1551 4.11063 28.0729L7.46445 24.7191L6.61051 23.014L4.90501 22.16L1.55153 25.5137C1.37759 25.6873 1.07925 25.6243 0.993383 25.3915C-0.655439 20.912 3.81247 16.6225 8.20163 18.3989L12.1411 14.4588L13.6798 15.9975C13.1892 16.4881 13.2537 17.1416 13.6872 17.5754L14.3801 18.2683H14.3803Z" fill="currentColor"/>
<path fill-rule="evenodd" clip-rule="evenodd" d="M24.8919 28.1815C23.8375 28.1815 22.8487 27.7739 22.1077 27.033L19.3567 24.282L24.9243 18.7142L27.6753 21.4654C30.1243 23.9149 28.4212 28.1815 24.8917 28.1815H24.8919ZM24.9979 26.2101C23.3542 26.2101 22.521 24.2086 23.6863 23.0433C24.8532 21.8764 26.8531 22.7083 26.8531 24.3549C26.8531 25.3798 26.0228 26.2101 24.9981 26.2101H24.9979ZM24.9979 23.1789C23.4516 23.1789 23.4516 25.5313 24.9979 25.5313C26.5471 25.5313 26.547 23.1789 24.9979 23.1789ZM18.8766 23.8017L17.8966 22.8217L23.4642 17.2541L24.444 18.234L18.8765 23.8017H18.8766ZM17.4165 22.3416L15.9839 20.909C15.0673 19.9924 21.2365 15.0259 21.5518 15.3416L22.9841 16.7738L17.4165 22.3414V22.3416Z" fill="currentColor"/>
<path fill-rule="evenodd" clip-rule="evenodd" d="M15.3058 21.7057C14.8184 21.7057 14.534 21.2959 14.1354 20.8972C13.7951 20.557 13.7949 20.0038 14.1354 19.6637L20.3062 13.4928C20.6354 13.1638 21.2116 13.1643 21.5398 13.4928C21.8885 13.8417 22.8139 14.5596 22.0932 15.2798L15.9228 21.451C15.7581 21.6154 15.5391 21.7057 15.3058 21.7057Z" fill="currentColor"/>
<path fill-rule="evenodd" clip-rule="evenodd" d="M15.8356 18.7831C15.7489 18.7831 15.6618 18.7499 15.5955 18.6835L14.0875 17.1754C13.8827 16.9706 13.8274 16.6495 14.0293 16.4481L17.0909 13.3866C17.2942 13.1835 17.6149 13.242 17.8177 13.4452L19.326 14.953C19.3956 15.0226 15.8575 18.7831 15.8356 18.7831Z" fill="currentColor"/>
<path fill-rule="evenodd" clip-rule="evenodd" d="M14.9599 16.337C14.873 16.337 14.7861 16.3038 14.7201 16.2376L7.41769 8.93515L5.10364 8.31506C5.01454 8.29096 4.93903 8.2319 4.8944 8.1513L2.63312 4.053C2.56015 3.92046 2.5834 3.75585 2.69031 3.64894L4.29179 2.04747C4.3987 1.94055 4.56331 1.9173 4.69568 1.99028L8.79397 4.25121C8.87492 4.29567 8.93398 4.37136 8.95773 4.46045L9.57765 6.77451L16.8801 14.0769C17.1961 14.3926 15.3855 16.3369 14.9599 16.3369V16.337Z" fill="currentColor"/>
</g>
</svg>
