<svg width="12" height="13" viewBox="0 0 12 13" fill="none" xmlns="http://www.w3.org/2000/svg">
<path d="M3.60333 12.1927C3.27302 12.1927 2.99026 12.0752 2.75505 11.8403C2.51983 11.6052 2.40222 11.3227 2.40222 10.9927C2.40222 10.6627 2.51983 10.3802 2.75505 10.1452C2.99026 9.91025 3.27302 9.79275 3.60333 9.79275C3.93363 9.79275 4.2164 9.91025 4.45161 10.1452C4.68683 10.3802 4.80444 10.6627 4.80444 10.9927C4.80444 11.3227 4.68683 11.6052 4.45161 11.8403C4.2164 12.0752 3.93363 12.1927 3.60333 12.1927ZM9.60888 12.1927C9.27857 12.1927 8.99581 12.0752 8.76059 11.8403C8.52538 11.6052 8.40777 11.3227 8.40777 10.9927C8.40777 10.6627 8.52538 10.3802 8.76059 10.1452C8.99581 9.91025 9.27857 9.79275 9.60888 9.79275C9.93918 9.79275 10.2219 9.91025 10.4572 10.1452C10.6924 10.3802 10.81 10.6627 10.81 10.9927C10.81 11.3227 10.6924 11.6052 10.4572 11.8403C10.2219 12.0752 9.93918 12.1927 9.60888 12.1927ZM2.25104 0.822129C2.41675 1.17067 2.76823 1.39275 3.15416 1.39275H11.3805C11.6107 1.39275 11.7859 1.49525 11.906 1.70025C12.0261 1.90525 12.0311 2.11275 11.921 2.32275L9.78905 6.16275C9.67894 6.36275 9.53131 6.51775 9.34614 6.62775C9.16096 6.73775 8.95828 6.79275 8.73807 6.79275H4.61854C4.39981 6.79275 4.19841 6.91178 4.09293 7.10339C3.87279 7.50327 4.16208 7.99275 4.61854 7.99275H10.21C10.5414 7.99275 10.81 8.26138 10.81 8.59275C10.81 8.92412 10.5414 9.19275 10.21 9.19275H3.60333C3.15291 9.19275 2.8126 8.99525 2.58239 8.60025C2.35217 8.20525 2.34216 7.81275 2.55236 7.42275L3.11573 6.40127C3.27105 6.11966 3.28145 5.78052 3.14367 5.48992L1.40049 1.81327C1.27873 1.55646 1.01993 1.39275 0.735712 1.39275H0.6C0.268629 1.39275 0 1.12412 0 0.792749C0 0.461378 0.268629 0.192749 0.6 0.192749H1.31998C1.7059 0.192749 2.05739 0.414826 2.2231 0.763368L2.25104 0.822129Z" fill="white"/>
<path d="M3.60333 12.1927C3.27302 12.1927 2.99026 12.0752 2.75505 11.8403C2.51983 11.6052 2.40222 11.3227 2.40222 10.9927C2.40222 10.6627 2.51983 10.3802 2.75505 10.1452C2.99026 9.91025 3.27302 9.79275 3.60333 9.79275C3.93363 9.79275 4.2164 9.91025 4.45161 10.1452C4.68683 10.3802 4.80444 10.6627 4.80444 10.9927C4.80444 11.3227 4.68683 11.6052 4.45161 11.8403C4.2164 12.0752 3.93363 12.1927 3.60333 12.1927ZM9.60888 12.1927C9.27857 12.1927 8.99581 12.0752 8.76059 11.8403C8.52538 11.6052 8.40777 11.3227 8.40777 10.9927C8.40777 10.6627 8.52538 10.3802 8.76059 10.1452C8.99581 9.91025 9.27857 9.79275 9.60888 9.79275C9.93918 9.79275 10.2219 9.91025 10.4572 10.1452C10.6924 10.3802 10.81 10.6627 10.81 10.9927C10.81 11.3227 10.6924 11.6052 10.4572 11.8403C10.2219 12.0752 9.93918 12.1927 9.60888 12.1927ZM2.25104 0.822129C2.41675 1.17067 2.76823 1.39275 3.15416 1.39275H11.3805C11.6107 1.39275 11.7859 1.49525 11.906 1.70025C12.0261 1.90525 12.0311 2.11275 11.921 2.32275L9.78905 6.16275C9.67894 6.36275 9.53131 6.51775 9.34614 6.62775C9.16096 6.73775 8.95828 6.79275 8.73807 6.79275H4.61854C4.39981 6.79275 4.19841 6.91178 4.09293 7.10339C3.87279 7.50327 4.16208 7.99275 4.61854 7.99275H10.21C10.5414 7.99275 10.81 8.26138 10.81 8.59275C10.81 8.92412 10.5414 9.19275 10.21 9.19275H3.60333C3.15291 9.19275 2.8126 8.99525 2.58239 8.60025C2.35217 8.20525 2.34216 7.81275 2.55236 7.42275L3.11573 6.40127C3.27105 6.11966 3.28145 5.78052 3.14367 5.48992L1.40049 1.81327C1.27873 1.55646 1.01993 1.39275 0.735712 1.39275H0.6C0.268629 1.39275 0 1.12412 0 0.792749C0 0.461378 0.268629 0.192749 0.6 0.192749H1.31998C1.7059 0.192749 2.05739 0.414826 2.2231 0.763368L2.25104 0.822129Z" fill="url(#paint0_linear_4460_2328)"/>
<defs>
<linearGradient id="paint0_linear_4460_2328" x1="6" y1="0.192749" x2="6" y2="12.1927" gradientUnits="userSpaceOnUse">
<stop stop-color="#FCD909"/>
<stop offset="1" stop-color="#FEA400"/>
</linearGradient>
</defs>
</svg>
