<svg width="390" height="441" viewBox="0 0 390 441" fill="none" xmlns="http://www.w3.org/2000/svg">
<path d="M110.291 290.26C127.811 254.652 185.271 239.4 220.688 255.771C251.911 270.2 283.761 301.766 269.808 338.812C255.611 376.519 199.984 388.083 166.586 371.816C137.705 357.753 92.3366 326.732 110.286 290.26H110.291Z" stroke="#2C2E61" stroke-miterlimit="10"/>
<path d="M101.024 273.262C133.274 239.411 199.914 241.256 237.042 264.604C266.421 283.075 307.335 317.818 278.258 355.375C248.397 393.935 183.873 384.267 148.405 361.371C120.301 343.225 64.204 311.915 101.024 273.262Z" stroke="#2C2E61" stroke-miterlimit="10"/>
<path d="M94.3549 254.71C117.767 241.633 147.407 240.276 173.638 243.088C205.372 246.487 229.085 258.804 255.095 276.417C274.871 289.808 293.562 302.845 300.684 326.9C306.031 344.954 301.032 362.746 284.904 373.301C263.754 387.15 235.482 387.579 211.229 384.923C178.468 381.339 154.604 364.816 127.318 348.033C108.482 336.446 79.1142 324.598 72.6015 301.099C67.2952 281.95 77.705 264.012 94.3607 254.704L94.3549 254.71Z" stroke="#2C2E61" stroke-miterlimit="10"/>
<path d="M91.1536 235.172C122.226 227.192 156.848 231.988 187.498 240.276C220.421 249.178 248.553 270.873 275.602 290.272C306.64 312.529 347.803 375.064 288.673 391.998C259.555 400.337 225.136 395.535 196.522 386.918C162.369 376.63 132.996 350.823 102.352 333.442C79.8738 320.695 55.4992 304.776 53.9682 276.046C52.7793 253.823 71.4938 240.223 91.1536 235.172Z" stroke="#2C2E61" stroke-miterlimit="10"/>
<path d="M92.2671 215.402C129.313 213.929 171.121 223.939 204.247 240.571C220.769 248.864 235.012 261.2 249.864 272.044C265.546 283.492 283.947 293.456 297.048 307.971C313.193 325.856 338.356 351.982 337.011 378.526C335.776 402.959 308.316 409.825 288.279 410.741C252.955 412.359 210.023 402.599 179.466 384.552C160.943 373.614 144.554 359.301 126.431 347.714C109.584 336.945 90.6665 328.437 74.9561 316.867C56.0792 302.966 33.1776 273.912 38.1708 247.641C42.8335 223.104 70.8675 216.249 92.2555 215.402H92.2671Z" stroke="#2C2E61" stroke-miterlimit="10"/>
<path d="M98.5303 196.287C141.138 202.348 187.968 218.719 221.476 246.226C254.973 273.726 290.616 298.385 318.128 331.928C333.27 350.387 361.542 381.6 351.515 408.334C341.946 433.846 303.833 431.596 282.474 428.615C238.55 422.485 195.339 404.872 161.401 376.299C143.313 361.076 124.929 347.146 104.602 335.013C84.2871 322.887 65.909 311.7 51.0395 292.974C36.0018 274.033 14.0108 241.998 26.6533 216.539C39.0233 191.636 75.5765 193.022 98.5361 196.287H98.5303Z" stroke="#2C2E61" stroke-miterlimit="10"/>
<path d="M110.703 178.901C133.784 185.878 156.234 195.812 177.587 207.173C202.234 220.285 219.475 237.753 239.321 256.966C256.464 273.552 277.005 286.386 293.73 303.297C310.711 320.469 325.882 340.575 340.247 359.893C354.53 379.1 379.914 416.257 359.506 439.726C339.174 463.109 294.907 451.986 270.254 444.592C245.567 437.186 220.867 426.62 198.563 413.612C176.369 400.668 160.461 379.953 141.329 363.204C120.997 345.406 97.0398 333.616 75.5127 317.598C56.978 303.807 42.2825 283.312 30.5098 263.601C17.8151 242.346 0.156085 205.88 20.9177 183.767C42.3115 160.981 85.3252 171.234 110.703 178.901Z" stroke="#2C2E61" stroke-miterlimit="10"/>
<path d="M129.4 164.42C154.285 175.537 181.809 189.491 202.31 207.834C223.465 226.763 238.219 251.746 259.549 270.757C279.545 288.578 297.575 303.825 314.063 325.172C330.544 346.508 347.809 367.751 360.985 391.348C374.167 414.963 387.993 454.085 358.115 471.431C326.485 489.798 280.519 470.741 251.094 457.524C224.823 445.723 196.504 431.445 176.961 409.622C157.527 387.921 140.929 365.315 117.175 347.871C93.3689 330.391 69.3133 318.033 51.2541 293.96C36.5528 274.358 23.0925 253.156 13.6802 230.602C3.42119 206.019 -5.92154 167.117 22.3734 150.519C53.8638 132.048 100.05 151.319 129.406 164.426L129.4 164.42Z" stroke="#2C2E61" stroke-miterlimit="10"/>
<path d="M155.068 154.144C183.804 171.588 205.267 189.612 223.436 218.25C240.568 245.251 259.804 265.056 284.005 285.615C305.903 304.213 320.535 329.226 336.669 352.748C352.263 375.481 367.857 398.98 376.243 425.477C385.511 454.764 382.193 492.669 347.676 501.976C306.326 513.123 258.685 486.556 225.049 466.148C210.411 457.269 194.654 447.782 183.334 434.635C172.924 422.549 165.113 408.346 156.106 395.245C137.566 368.279 114.502 350.399 87.703 332.357C44.0513 302.972 13.7324 245.57 2.1105 194.826C-4.66893 165.226 -1.94904 127.751 32.441 118.327C73.6569 107.036 121.588 133.834 155.068 154.155V154.144Z" stroke="#2C2E61" stroke-miterlimit="10"/>
<path d="M187.886 149.435C217.521 172.139 223.744 210.177 244.395 239.765C262.478 265.671 292.971 278.545 310.96 303.894C328.926 329.214 345.211 357.996 359.524 385.555C371.627 408.856 382.257 434.542 382.657 461.178C383.185 496.624 366.071 527.987 327.772 529.732C278.53 531.976 226.87 498.572 192.335 469.019C164.973 445.601 157.794 403.741 133.912 375.597C112.014 349.79 78.0412 339.154 56.1197 314.124C36.9993 292.296 24.1538 259.999 13.9759 233.038C4.87677 208.936 -2.06504 183.216 -2.55218 157.414C-3.21331 122.108 14.2543 90.5945 52.3327 88.8605C102.027 86.593 150.661 120.908 187.892 149.435H187.886Z" stroke="#2C2E61" stroke-miterlimit="10"/>
<path d="M219.499 159.873C232.414 193.724 237.442 233.223 268.068 258.938C280.473 269.353 295.343 276.336 307.776 286.67C322.118 298.599 328.509 314.756 336.906 330.942C363.496 382.208 393.369 437.47 379.184 497.076C369.667 537.062 337.823 558.311 297.326 552.721C273.079 549.374 250.061 538.779 229.224 526.351C198.024 507.741 176.694 487.124 163.164 453.511C147.744 415.195 138.395 379.135 101.807 354.505C87.4246 344.826 71.2038 337.89 57.4942 327.213C43.512 316.328 37.0863 301.853 30.1329 285.986C8.24622 236.042 -11.7731 174.795 1.29861 119.852C10.8153 79.8483 42.6363 58.6401 83.1679 64.2365C136.591 71.6132 201.115 111.71 219.493 159.873H219.499Z" stroke="#2C2E61" stroke-miterlimit="10"/>
<path d="M237.448 198.654C241.629 217.629 249.157 236.17 264.113 249.949C277.243 262.046 294.009 267.776 309.557 275.825C326.752 284.727 336.431 294.256 343.738 312.077C350.691 329.034 358.039 345.841 364.569 362.972C384.948 416.419 396.094 479.052 366.1 531.466C342.851 572.102 298.416 581.648 255.698 568.878C231.068 561.513 204.125 548.255 185.294 530.579C154.053 501.252 152.221 453.076 140.344 415.862C134.214 396.643 123.781 378.746 107.044 365.872C91.7567 354.111 73.6047 348.027 56.7113 339.177C24.0262 322.064 15.9187 285.713 7.63725 252.419C-5.57945 199.274 -13.2346 133.73 15.2692 83.9195C38.4955 43.33 82.9939 33.6741 125.683 46.537C151.159 54.2153 177.732 67.9424 197.885 85.4506C229.845 113.218 229.247 161.422 237.453 198.654H237.448Z" stroke="#2C2E61" stroke-miterlimit="10"/>
<path d="M264.815 241.888C287.641 266.912 335.532 262.499 358.004 291.89C369.249 306.597 372.851 329.475 377.774 347.117C382.553 364.237 386.705 381.548 389.28 399.149C397.527 455.518 385.516 522.048 342.074 562.377C302.957 598.686 248.814 596.749 202.594 576.017C170.483 561.611 150.521 538.808 140.825 504.685C128.855 462.553 135.878 407.923 104.857 377.534C79.5607 352.748 28.0394 352.545 8.5014 317.389C-7.18581 289.158 -9.17498 246.58 -10.4914 214.898C-12.8402 158.238 -2.93489 92.2069 40.7283 51.6753C79.6999 15.4991 134.161 17.0707 180.214 38.0643C211.53 52.3423 232.269 72.1876 239.93 106.775C249.719 150.96 234.821 209.011 264.815 241.894V241.888Z" stroke="#2C2E61" stroke-miterlimit="10"/>
<path d="M337.463 253.081C354.971 258.729 373.854 265.039 386.433 279.392C399.377 294.169 401.146 314.148 404.045 332.775C409.474 367.658 412.373 403.568 406.713 438.619C397.011 498.706 361.861 559.935 306.013 587.621C256.922 611.961 181.432 609.508 140.889 568.93C110.866 538.878 108.36 493.278 102.451 453.674C99.5916 434.49 96.5644 413.223 83.8348 397.699C71.0357 382.087 50.1233 374.774 32.2961 366.777C15.5534 359.272 -1.52565 350.115 -12.4806 334.874C-23.9401 318.932 -25.6915 299.238 -27.4719 280.274C-30.7775 245.019 -29.548 209.162 -22.4439 174.43C-10.1203 114.175 21.7007 53.7341 78.8068 25.4275C126.75 1.66183 204.699 2.56653 243.815 43.8694C273.224 74.9191 269.912 123.268 270.892 162.709C271.391 182.804 270.927 207.509 283.332 224.519C295.702 241.476 318.656 247.014 337.457 253.081H337.463Z" stroke="#2C2E61" stroke-miterlimit="10"/>
<path d="M431.598 259.883C451.142 291.907 447.726 339.409 444.107 375.65C440.453 412.203 430.931 447.532 413.823 480.113C381.515 541.661 325.94 589.947 257.194 604.822C189.783 619.413 110.1 604.051 80.1116 535.711C63.8154 498.572 57.5753 457.896 28.8802 427.188C3.72266 400.268 -32.2506 388.35 -49.7124 353.977C-66.9017 320.144 -64.0716 275.414 -59.322 238.565C-54.5607 201.646 -43.7101 165.365 -26.3875 132.373C5.75243 71.1668 61.6 22.0058 130.264 7.66983C162.932 0.849807 198.111 1.24416 230.442 9.98377C266.966 19.8542 291.364 43.1038 302.603 79.3207C314.602 117.991 314.335 161.375 343.732 192.559C369.597 219.995 411.051 226.218 431.598 259.883Z" stroke="#2C2E61" stroke-miterlimit="10"/>
<path d="M500.593 306.249C500.419 472.22 361.02 610.83 195.35 611.497C155.433 611.659 112.75 605.298 79.0908 582.35C46.9625 560.445 28.3466 524.768 1.18251 497.61C-25.9584 470.474 -61.7229 452.236 -82.8847 419.498C-104.313 386.338 -109.933 344.919 -109.898 306.249C-109.759 140.66 28.9498 0.664243 195.35 1.0006C233.852 1.076 275.764 6.16781 307.973 29.1042C340.397 52.1914 355.203 90.8034 382.97 118.571C410.007 145.607 447.755 160.187 470.761 191.196C494.84 223.655 500.639 266.999 500.598 306.249H500.593Z" stroke="#2C2E61" stroke-miterlimit="10"/>
</svg>
