<svg width="23" height="29" viewBox="0 0 23 29" fill="none" xmlns="http://www.w3.org/2000/svg">
<g style="mix-blend-mode:soft-light" opacity="0.5">
<path d="M16.2997 28.293H5.69015V26.3099H16.2996V28.293H16.2997ZM16.2997 25.2192H5.69015V23.2362H16.2996V25.2192H16.2997ZM21.0992 11.9722C21.0858 11.9725 21.0725 11.9725 21.0591 11.9722H16.2997V21.1936C16.3108 21.7191 15.8937 22.1542 15.3681 22.1652C15.3547 22.1655 15.3414 22.1655 15.328 22.1652H6.66193C6.13635 22.1763 5.70131 21.7592 5.69025 21.2336C5.68997 21.2202 5.68997 21.2069 5.69025 21.1936V11.9722H0.970439C0.582157 11.9852 0.226596 11.7561 0.0780501 11.3971C-0.0718897 11.0418 -0.00226501 10.6319 0.256528 10.346L10.3306 0.271969C10.707 -0.0906565 11.3027 -0.0906565 11.6791 0.271969L21.5946 10.1874C21.8624 10.3724 22.0248 10.6751 22.0308 11.0005C22.0419 11.5261 21.6248 11.9611 21.0992 11.9722Z" fill="white"/>
</g>
</svg>
