<svg viewBox="0 0 23 18" fill="none" xmlns="http://www.w3.org/2000/svg">
<path d="M3.64286 2.51941H19.3571C19.5407 2.51937 19.7241 2.53004 19.9062 2.55136C19.8444 2.15434 19.6956 1.77289 19.4687 1.43C19.2418 1.08711 18.9414 0.789883 18.5857 0.556245C18.23 0.322607 17.8264 0.157395 17.3992 0.07057C16.972 -0.0162552 16.53 -0.0228952 16.0999 0.0510502L3.17634 2.07299H3.16161C2.35039 2.21515 1.629 2.63576 1.14478 3.2489C1.87431 2.77337 2.7476 2.51835 3.64286 2.51941ZM19.3571 3.59946H3.64286C2.8096 3.6003 2.01073 3.90401 1.42153 4.44395C0.832323 4.9839 0.50091 5.71599 0.5 6.4796V15.12C0.50091 15.8836 0.832323 16.6157 1.42153 17.1556C2.01073 17.6956 2.8096 17.9993 3.64286 18.0001H19.3571C20.1904 17.9993 20.9893 17.6956 21.5785 17.1556C22.1677 16.6157 22.4991 15.8836 22.5 15.12V6.4796C22.4991 5.71599 22.1677 4.9839 21.5785 4.44395C20.9893 3.90401 20.1904 3.6003 19.3571 3.59946ZM17.0246 12.2399C16.7138 12.2399 16.4099 12.1554 16.1515 11.9972C15.8931 11.8389 15.6917 11.614 15.5727 11.3509C15.4538 11.0877 15.4227 10.7982 15.4833 10.5189C15.544 10.2395 15.6936 9.98291 15.9134 9.78151C16.1332 9.58012 16.4132 9.44296 16.718 9.3874C17.0228 9.33183 17.3388 9.36035 17.6259 9.46935C17.9131 9.57834 18.1585 9.76292 18.3311 9.99973C18.5038 10.2366 18.596 10.515 18.596 10.7998C18.596 11.1817 18.4304 11.548 18.1357 11.8181C17.841 12.0881 17.4413 12.2399 17.0246 12.2399Z" fill="currentColor"/>
</svg>
