<svg width="18" height="18" viewBox="0 0 18 18" fill="none" xmlns="http://www.w3.org/2000/svg">
<rect width="18" height="18" rx="9" fill="white"/>
<path d="M9.94815 13.5271L9.78196 7.41628H8.2223L8.05185 13.5271H9.94815ZM9.00213 4.68901C8.72088 4.68901 8.4794 4.78844 8.2777 4.9873C8.07599 5.18901 7.97656 5.43049 7.9794 5.71174C7.97656 5.99015 8.07599 6.22878 8.2777 6.42765C8.4794 6.62651 8.72088 6.72594 9.00213 6.72594C9.27202 6.72594 9.50923 6.62651 9.71378 6.42765C9.91832 6.22878 10.022 5.99015 10.0249 5.71174C10.022 5.52424 9.9723 5.35236 9.87571 5.19611C9.78196 5.0427 9.65838 4.91912 9.50497 4.82537C9.35156 4.73446 9.18395 4.68901 9.00213 4.68901Z" fill="black"/>
</svg>
